<?xml version="1.0" encoding="UTF-8" standalone="no"?>
<!-- Created with Inkscape (http://www.inkscape.org/) -->

<svg
   xmlns:dc="http://purl.org/dc/elements/1.1/"
   xmlns:cc="http://creativecommons.org/ns#"
   xmlns:rdf="http://www.w3.org/1999/02/22-rdf-syntax-ns#"
   xmlns:svg="http://www.w3.org/2000/svg"
   xmlns="http://www.w3.org/2000/svg"
   xmlns:sodipodi="http://sodipodi.sourceforge.net/DTD/sodipodi-0.dtd"
   xmlns:inkscape="http://www.inkscape.org/namespaces/inkscape"
   version="1.0"
   width="128"
   height="128"
   id="svg2"
   inkscape:version="0.48.1 r9760"
   sodipodi:docname="raven.svg"
   inkscape:export-filename="/Users/andrew/Downloads/raven.png"
   inkscape:export-xdpi="90"
   inkscape:export-ydpi="90">
  <metadata
     id="metadata7">
    <rdf:RDF>
      <cc:Work
         rdf:about="">
        <dc:format>image/svg+xml</dc:format>
        <dc:type
           rdf:resource="http://purl.org/dc/dcmitype/StillImage" />
        <dc:title></dc:title>
      </cc:Work>
    </rdf:RDF>
  </metadata>
  <sodipodi:namedview
     pagecolor="#ffffff"
     bordercolor="#666666"
     borderopacity="1"
     objecttolerance="10"
     gridtolerance="10"
     guidetolerance="10"
     inkscape:pageopacity="0"
     inkscape:pageshadow="2"
     inkscape:window-width="1280"
     inkscape:window-height="671"
     id="namedview5"
     showgrid="false"
     inkscape:zoom="3.5390625"
     inkscape:cx="64"
     inkscape:cy="64"
     inkscape:window-x="0"
     inkscape:window-y="0"
     inkscape:window-maximized="1"
     inkscape:current-layer="svg2" />
  <defs
     id="defs5" />
  <path
     d="m 112.36497,127.66506 c -0.45117,-0.18238 -1.19255,-0.9625 -1.6475,-1.7336 -0.98809,-1.67468 -2.61957,-1.91603 -3.82128,-0.5653 -1.95452,2.19691 -6.23622,2.87676 -10.216305,1.62215 -2.658003,-0.83786 -3.304638,-1.57316 -8.041201,-9.14374 -2.864525,-4.57845 -4.35272,-6.53966 -6.233312,-8.21454 -1.565021,-1.39383 -2.93747,-3.07649 -3.744843,-4.59128 -1.367592,-2.56587 -2.004896,-2.89317 -2.964829,-1.52267 -0.719378,1.02705 -0.78328,2.61817 -0.160082,3.98594 0.345929,0.75922 0.335011,1.12006 -0.04784,1.58138 -0.408077,0.4917 -1.613567,0.59662 -6.797836,0.5917 -3.465994,-0.003 -6.56247,-0.1708 -6.881061,-0.37225 -0.485109,-0.30674 -0.402333,-0.55094 0.509272,-1.50245 0.917119,-0.95726 1.49789,-1.1744 3.6882,-1.37893 2.578619,-0.2408 2.621191,-0.26411 5.254256,-2.877 2.873559,-2.85154 3.401782,-4.397717 1.950962,-5.710687 -1.012192,-0.91602 -11.279699,-5.34557 -12.390804,-5.34557 -0.654076,0 -1.289915,0.49888 -2.11658,1.66068 -1.707924,2.40032 -2.48591,3.24304 -3.489974,3.7804 -1.391708,0.74482 -3.962369,5.002667 -3.962369,6.562977 0,1.83541 0.623716,2.84433 1.758364,2.84433 0.932592,0 2.083022,1.36858 1.576344,1.87526 -0.326446,0.32645 -14.306631,0.54173 -15.057123,0.23187 -0.720972,-0.29768 1.627752,-1.25131 3.191706,-1.2959 1.70774,-0.0487 2.270244,-0.43306 3.116266,-2.12935 0.442322,-0.88686 1.826614,-2.6675 3.076208,-3.95696 2.519245,-2.599637 3.901225,-4.810937 3.901225,-6.242347 0,-1.52697 -2.673556,-6.45336 -4.978273,-9.17315 -1.174871,-1.38645 -3.609585,-4.75911 -5.410477,-7.49478 -1.800893,-2.73568 -3.457058,-5.08688 -3.680368,-5.22489 -0.72436,-0.44768 -2.584028,-4.60139 -3.673176,-8.20432 -0.584699,-1.9342 -1.579416,-4.92341 -2.210483,-6.6427 -1.324999,-3.60984 -2.430392,-7.28807 -3.111861,-10.3548 -0.262658,-1.18201 -0.63314,-2.66364 -0.823293,-3.2925 -1.044691,-3.45495 -0.76787,-8.66293 0.622329,-11.70821 0.78793,-1.72599 1.679856,-5.85234 1.921389,-8.88898 0.17777,-2.23499 0.10077,-2.6895 -0.556401,-3.28423 -0.419497,-0.37964 -0.762723,-0.89974 -0.762723,-1.15578 0,-0.25604 -0.271213,-1.00919 -0.602695,-1.67366 -0.974644,-1.95372 -3.314128,-2.96123 -9.166342,-3.94752 -2.883898,-0.48603 -5.843472,-1.1344 -6.576831,-1.44082 -1.144107,-0.47804 -1.261682,-0.64351 -0.828284,-1.16572 1.179192,-1.42084 6.04169,-3.5614905 9.749956,-4.2922805 3.061858,-0.6034 4.890164,-1.48629 6.492972,-3.13546 0.910261,-0.93659 2.151552,-1.81634 2.758424,-1.95499 0.606872,-0.13866 2.598012,-0.7482 4.424755,-1.35454 4.311899,-1.43121997 6.484194,-1.72395997 8.624219,-1.16218997 2.622906,0.68853 8.084217,4.47378997 10.231498,7.09150997 1.022015,1.24592 3.518201,3.6851905 5.547078,5.4206005 3.592807,3.07311 5.679467,5.48818 7.026435,8.13228 0.482491,0.94713 1.315052,1.60744 3.078853,2.44186 1.329642,0.62903 2.681284,1.14548 3.00365,1.14766 1.046859,0.007 4.537036,2.25089 6.401755,4.11561 3.693644,3.69365 7.815674,10.71902 10.184849,17.35851 0.572476,1.60434 1.179552,3.09895 1.349058,3.32135 0.412621,0.54139 1.116978,3.46646 1.414657,5.87483 0.132819,1.07455 0.570167,2.92083 0.97189,4.10284 0.401723,1.18201 1.199,4.25915 1.771726,6.83808 0.572726,2.57893 1.462649,6.06255 1.977603,7.74138 0.514954,1.67883 0.936281,3.441 0.936281,3.91593 0,1.36968 2.632166,10.15254 3.825396,12.76438 0.44183,0.9671 1.44624,3.67276 2.23202,6.01257 0.82678,2.4619 2.20883,5.507417 3.28042,7.228817 1.01845,1.63604 2.21592,3.76589 2.66106,4.73298 1.33173,2.8933 2.84949,6.3381 2.84949,6.46737 0,0.0665 -0.39563,0.17717 -0.87918,0.24585 -0.77816,0.11051 -0.86489,0.31599 -0.75482,1.78823 0.0684,0.91485 0.73147,2.97738 1.47349,4.5834 1.63939,3.54825 1.98717,5.07787 1.33356,5.86542 -0.53721,0.6473 -1.33093,0.71067 -2.57947,0.20595 z"
     id="path2384"
     style="fill:#000000"
     inkscape:connector-curvature="0" />
</svg>
