<?xml version="1.0" encoding="UTF-8" standalone="no"?>
<!-- Created with Inkscape (http://www.inkscape.org/) -->

<svg
   xmlns:dc="http://purl.org/dc/elements/1.1/"
   xmlns:cc="http://creativecommons.org/ns#"
   xmlns:rdf="http://www.w3.org/1999/02/22-rdf-syntax-ns#"
   xmlns:svg="http://www.w3.org/2000/svg"
   xmlns="http://www.w3.org/2000/svg"
   xmlns:sodipodi="http://sodipodi.sourceforge.net/DTD/sodipodi-0.dtd"
   xmlns:inkscape="http://www.inkscape.org/namespaces/inkscape"
   version="1.0"
   width="256"
   height="256"
   id="svg2"
   inkscape:version="0.48.1 r9760"
   sodipodi:docname="ravens.svg"
   inkscape:export-filename="/Users/andrew/Downloads/ravens.png"
   inkscape:export-xdpi="90"
   inkscape:export-ydpi="90">
  <metadata
     id="metadata7">
    <rdf:RDF>
      <cc:Work
         rdf:about="">
        <dc:format>image/svg+xml</dc:format>
        <dc:type
           rdf:resource="http://purl.org/dc/dcmitype/StillImage" />
        <dc:title></dc:title>
      </cc:Work>
    </rdf:RDF>
  </metadata>
  <sodipodi:namedview
     pagecolor="#ffffff"
     bordercolor="#666666"
     borderopacity="1"
     objecttolerance="10"
     gridtolerance="10"
     guidetolerance="10"
     inkscape:pageopacity="0"
     inkscape:pageshadow="2"
     inkscape:window-width="1280"
     inkscape:window-height="671"
     id="namedview5"
     showgrid="false"
     inkscape:zoom="1.7695312"
     inkscape:cx="128"
     inkscape:cy="128"
     inkscape:window-x="0"
     inkscape:window-y="0"
     inkscape:window-maximized="1"
     inkscape:current-layer="svg2" />
  <defs
     id="defs5" />
  <g
     id="g3091"
     transform="matrix(0.33080313,0,0,0.33080313,112.43691,103.93097)">
    <path
       inkscape:connector-curvature="0"
       style="fill:#000000"
       id="path2384"
       d="m 112.36497,127.66506 c -0.45117,-0.18238 -1.19255,-0.9625 -1.6475,-1.7336 -0.98809,-1.67468 -2.61957,-1.91603 -3.82128,-0.5653 -1.95452,2.19691 -6.23622,2.87676 -10.216305,1.62215 -2.658003,-0.83786 -3.304638,-1.57316 -8.041201,-9.14374 -2.864525,-4.57845 -4.35272,-6.53966 -6.233312,-8.21454 -1.565021,-1.39383 -2.93747,-3.07649 -3.744843,-4.59128 -1.367592,-2.56587 -2.004896,-2.89317 -2.964829,-1.52267 -0.719378,1.02705 -0.78328,2.61817 -0.160082,3.98594 0.345929,0.75922 0.335011,1.12006 -0.04784,1.58138 -0.408077,0.4917 -1.613567,0.59662 -6.797836,0.5917 -3.465994,-0.003 -6.56247,-0.1708 -6.881061,-0.37225 -0.485109,-0.30674 -0.402333,-0.55094 0.509272,-1.50245 0.917119,-0.95726 1.49789,-1.1744 3.6882,-1.37893 2.578619,-0.2408 2.621191,-0.26411 5.254256,-2.877 2.873559,-2.85154 3.401782,-4.397717 1.950962,-5.710687 -1.012192,-0.91602 -11.279699,-5.34557 -12.390804,-5.34557 -0.654076,0 -1.289915,0.49888 -2.11658,1.66068 -1.707924,2.40032 -2.48591,3.24304 -3.489974,3.7804 -1.391708,0.74482 -3.962369,5.002667 -3.962369,6.562977 0,1.83541 0.623716,2.84433 1.758364,2.84433 0.932592,0 2.083022,1.36858 1.576344,1.87526 -0.326446,0.32645 -14.306631,0.54173 -15.057123,0.23187 -0.720972,-0.29768 1.627752,-1.25131 3.191706,-1.2959 1.70774,-0.0487 2.270244,-0.43306 3.116266,-2.12935 0.442322,-0.88686 1.826614,-2.6675 3.076208,-3.95696 2.519245,-2.599637 3.901225,-4.810937 3.901225,-6.242347 0,-1.52697 -2.673556,-6.45336 -4.978273,-9.17315 -1.174871,-1.38645 -3.609585,-4.75911 -5.410477,-7.49478 -1.800893,-2.73568 -3.457058,-5.08688 -3.680368,-5.22489 -0.72436,-0.44768 -2.584028,-4.60139 -3.673176,-8.20432 -0.584699,-1.9342 -1.579416,-4.92341 -2.210483,-6.6427 -1.324999,-3.60984 -2.430392,-7.28807 -3.111861,-10.3548 -0.262658,-1.18201 -0.63314,-2.66364 -0.823293,-3.2925 -1.044691,-3.45495 -0.76787,-8.66293 0.622329,-11.70821 0.78793,-1.72599 1.679856,-5.85234 1.921389,-8.88898 0.17777,-2.23499 0.10077,-2.6895 -0.556401,-3.28423 -0.419497,-0.37964 -0.762723,-0.89974 -0.762723,-1.15578 0,-0.25604 -0.271213,-1.00919 -0.602695,-1.67366 -0.974644,-1.95372 -3.314128,-2.96123 -9.166342,-3.94752 -2.883898,-0.48603 -5.843472,-1.1344 -6.576831,-1.44082 -1.144107,-0.47804 -1.261682,-0.64351 -0.828284,-1.16572 1.179192,-1.42084 6.04169,-3.5614905 9.749956,-4.2922805 3.061858,-0.6034 4.890164,-1.48629 6.492972,-3.13546 0.910261,-0.93659 2.151552,-1.81634 2.758424,-1.95499 0.606872,-0.13866 2.598012,-0.7482 4.424755,-1.35454 4.311899,-1.43121997 6.484194,-1.72395997 8.624219,-1.16218997 2.622906,0.68853 8.084217,4.47378997 10.231498,7.09150997 1.022015,1.24592 3.518201,3.6851905 5.547078,5.4206005 3.592807,3.07311 5.679467,5.48818 7.026435,8.13228 0.482491,0.94713 1.315052,1.60744 3.078853,2.44186 1.329642,0.62903 2.681284,1.14548 3.00365,1.14766 1.046859,0.007 4.537036,2.25089 6.401755,4.11561 3.693644,3.69365 7.815674,10.71902 10.184849,17.35851 0.572476,1.60434 1.179552,3.09895 1.349058,3.32135 0.412621,0.54139 1.116978,3.46646 1.414657,5.87483 0.132819,1.07455 0.570167,2.92083 0.97189,4.10284 0.401723,1.18201 1.199,4.25915 1.771726,6.83808 0.572726,2.57893 1.462649,6.06255 1.977603,7.74138 0.514954,1.67883 0.936281,3.441 0.936281,3.91593 0,1.36968 2.632166,10.15254 3.825396,12.76438 0.44183,0.9671 1.44624,3.67276 2.23202,6.01257 0.82678,2.4619 2.20883,5.507417 3.28042,7.228817 1.01845,1.63604 2.21592,3.76589 2.66106,4.73298 1.33173,2.8933 2.84949,6.3381 2.84949,6.46737 0,0.0665 -0.39563,0.17717 -0.87918,0.24585 -0.77816,0.11051 -0.86489,0.31599 -0.75482,1.78823 0.0684,0.91485 0.73147,2.97738 1.47349,4.5834 1.63939,3.54825 1.98717,5.07787 1.33356,5.86542 -0.53721,0.6473 -1.33093,0.71067 -2.57947,0.20595 z" />
    <path
       d="m -14.222226,106.75557 c -0.45117,-0.18238 -1.19255,-0.9625 -1.6475,-1.7336 -0.98809,-1.67468 -2.61957,-1.91603 -3.82128,-0.5653 -1.95452,2.19691 -6.23622,2.87676 -10.216305,1.62215 -2.658003,-0.83786 -3.304638,-1.57316 -8.041201,-9.143742 -2.864525,-4.57845 -4.35272,-6.53966 -6.233312,-8.21454 -1.565021,-1.39383 -2.93747,-3.07649 -3.744843,-4.59128 -1.367592,-2.56587 -2.004896,-2.89317 -2.964829,-1.52267 -0.719378,1.02705 -0.78328,2.61817 -0.160082,3.98594 0.345929,0.75922 0.335011,1.12006 -0.04784,1.58138 -0.408077,0.4917 -1.613567,0.59662 -6.797836,0.5917 -3.465994,-0.003 -6.56247,-0.1708 -6.881061,-0.37225 -0.485109,-0.30674 -0.402333,-0.55094 0.509272,-1.50245 0.917119,-0.95726 1.49789,-1.1744 3.6882,-1.37893 2.578619,-0.2408 2.621191,-0.26411 5.254256,-2.877 2.873559,-2.85154 3.401782,-4.397717 1.950962,-5.710687 -1.012192,-0.91602 -11.279699,-5.34557 -12.390804,-5.34557 -0.654076,0 -1.289915,0.49888 -2.11658,1.66068 -1.707924,2.40032 -2.48591,3.24304 -3.489974,3.7804 -1.391708,0.74482 -3.962369,5.002667 -3.962369,6.562977 0,1.83541 0.623716,2.84433 1.758364,2.84433 0.932592,0 2.083022,1.36858 1.576344,1.87526 -0.326446,0.32645 -14.306631,0.54173 -15.057123,0.23187 -0.720972,-0.29768 1.627752,-1.25131 3.191706,-1.2959 1.70774,-0.0487 2.270244,-0.43306 3.116266,-2.12935 0.442322,-0.88686 1.826614,-2.6675 3.076208,-3.95696 2.519245,-2.599637 3.901225,-4.810937 3.901225,-6.242347 0,-1.52697 -2.673556,-6.45336 -4.978273,-9.17315 -1.174871,-1.38645 -3.609585,-4.75911 -5.410477,-7.49478 -1.800893,-2.73568 -3.457058,-5.08688 -3.680368,-5.22489 -0.72436,-0.44768 -2.584028,-4.60139 -3.673176,-8.20432 -0.584699,-1.9342 -1.579416,-4.92341 -2.210483,-6.6427 -1.324999,-3.60984 -2.430392,-7.28807 -3.111861,-10.3548 -0.262658,-1.18201 -0.63314,-2.66364 -0.823293,-3.2925 -1.044691,-3.45495 -0.76787,-8.66293 0.622329,-11.70821 0.78793,-1.72599 1.679856,-5.8523403 1.921389,-8.8889803 0.17777,-2.23499 0.10077,-2.6895 -0.556401,-3.28422996 -0.419497,-0.37964 -0.762723,-0.89974 -0.762723,-1.15578 0,-0.25604 -0.271213,-1.00919004 -0.602695,-1.67366004 -0.974644,-1.95372 -3.314126,-2.96123 -9.166346,-3.94752 -2.88389,-0.48603 -5.84347,-1.1344 -6.57683,-1.44082 -1.1441,-0.47804 -1.26168,-0.64351 -0.82828,-1.16572 1.17919,-1.4208397 6.04169,-3.5614907 9.74995,-4.2922807 3.06186,-0.6034 4.890169,-1.48629 6.492977,-3.13546 0.910261,-0.93659 2.151552,-1.81634 2.758424,-1.95499 0.606872,-0.13866 2.598012,-0.7482 4.424755,-1.35454 4.311899,-1.43122 6.484194,-1.72396 8.624219,-1.16219 2.622906,0.68853 8.084217,4.47379 10.231498,7.09151 1.022015,1.24592 3.518201,3.6851907 5.547078,5.4206007 3.592807,3.07311 5.679467,5.48818 7.026435,8.13228004 0.482491,0.94713 1.315052,1.60743996 3.078853,2.44185996 1.329642,0.62903 2.681284,1.14548 3.00365,1.14766 1.046859,0.007 4.537036,2.25089 6.401755,4.11561 3.693644,3.6936503 7.815674,10.7190203 10.184849,17.3585103 0.572476,1.60434 1.179552,3.09895 1.349058,3.32135 0.412621,0.54139 1.116978,3.46646 1.414657,5.87483 0.132819,1.07455 0.570167,2.92083 0.97189,4.10284 0.401723,1.18201 1.199,4.25915 1.771726,6.83808 0.572726,2.57893 1.462649,6.06255 1.977603,7.74138 0.514954,1.67883 0.936281,3.441 0.936281,3.91593 0,1.36968 2.632166,10.15254 3.825396,12.76438 0.44183,0.9671 1.44624,3.67276 2.23202,6.01257 0.82678,2.4619 2.20883,5.507417 3.28042,7.228817 1.01845,1.63604 2.21592,3.76589 2.66106,4.73298 1.33173,2.8933 2.84949,6.3381 2.84949,6.46737 0,0.0665 -0.39563,0.17717 -0.87918,0.24585 -0.77816,0.11051 -0.86489,0.31599 -0.75482,1.78823 0.0684,0.91485 0.73147,2.97738 1.47349,4.583402 1.63939,3.54825 1.98717,5.07787 1.33356,5.86542 -0.53721,0.6473 -1.33093,0.71067 -2.57947,0.20595 z"
       id="path3003"
       style="fill:#000000"
       inkscape:connector-curvature="0" />
    <path
       inkscape:connector-curvature="0"
       style="fill:#000000"
       id="path3005"
       d="m 245.73362,81.890228 c -0.45117,-0.18238 -1.19255,-0.9625 -1.6475,-1.7336 -0.98809,-1.67468 -2.61957,-1.91603 -3.82128,-0.5653 -1.95452,2.19691 -6.23622,2.87676 -10.2163,1.62215 -2.658,-0.83786 -3.30464,-1.57316 -8.0412,-9.143742 -2.86453,-4.57845 -4.35272,-6.53966 -6.23331,-8.21454 -1.56503,-1.39383 -2.93747,-3.07649 -3.74485,-4.59128 -1.36759,-2.56587 -2.00489,-2.89317 -2.96483,-1.52267 -0.71937,1.02705 -0.78328,2.61817 -0.16008,3.98594 0.34593,0.75922 0.33501,1.12006 -0.0478,1.58138 -0.40808,0.4917 -1.61357,0.59662 -6.79783,0.5917 -3.466,-0.003 -6.56247,-0.1708 -6.88107,-0.37225 -0.4851,-0.30674 -0.40233,-0.55094 0.50928,-1.50245 0.91712,-0.95726 1.49789,-1.1744 3.6882,-1.37893 2.57862,-0.2408 2.62119,-0.26411 5.25425,-2.877 2.87356,-2.85154 3.40178,-4.397717 1.95096,-5.710687 -1.01219,-0.91602 -11.27969,-5.34557 -12.3908,-5.34557 -0.65408,0 -1.28991,0.49888 -2.11658,1.66068 -1.70792,2.40032 -2.48591,3.24304 -3.48997,3.7804 -1.39171,0.74482 -3.96237,5.002667 -3.96237,6.562977 0,1.83541 0.62371,2.84433 1.75836,2.84433 0.93259,0 2.08302,1.36858 1.57635,1.87526 -0.32645,0.32645 -14.30664,0.54173 -15.05713,0.23187 -0.72097,-0.29768 1.62775,-1.25131 3.19171,-1.2959 1.70774,-0.0487 2.27024,-0.43306 3.11626,-2.12935 0.44233,-0.88686 1.82662,-2.6675 3.07621,-3.95696 2.51925,-2.599637 3.90123,-4.810937 3.90123,-6.242347 0,-1.52697 -2.67356,-6.45336 -4.97828,-9.17315 -1.17487,-1.38645 -3.60958,-4.75911 -5.41047,-7.49478 -1.8009,-2.73568 -3.45706,-5.08688 -3.68037,-5.22489 -0.72436,-0.44768 -2.58403,-4.60139 -3.67318,-8.20432 -0.5847,-1.9342 -1.57941,-4.92341 -2.21048,-6.6427 -1.325,-3.6098402 -2.43039,-7.2880702 -3.11186,-10.3548002 -0.26266,-1.18201 -0.63314,-2.66363995 -0.82329,-3.29249995 -1.04469,-3.45495005 -0.76787,-8.66293005 0.62233,-11.70820985 0.78793,-1.72599 1.67985,-5.85234 1.92138,-8.88898 0.17777,-2.23499 0.10077,-2.6895 -0.5564,-3.28423 -0.41949,-0.37964 -0.76272,-0.89974 -0.76272,-1.15578 0,-0.25604 -0.27121,-1.00919 -0.60269,-1.67366 -0.97465,-1.95372 -3.31413,-2.96123 -9.16635,-3.94752 -2.88389,-0.48603 -5.84347,-1.1344 -6.57683,-1.44082 -1.1441,-0.47804 -1.26168,-0.64351 -0.82828,-1.16572 1.17919,-1.42084 6.04169,-3.561491 9.74995,-4.292281 3.06186,-0.6034 4.89017,-1.48629 6.49298,-3.13546 0.91026,-0.93659 2.15155,-1.81634 2.75842,-1.95499 0.60687,-0.13866 2.59801,-0.7482 4.42476,-1.35454 4.31189,-1.43122 6.48419,-1.72396 8.62421,-1.16219 2.62291,0.68853 8.08422,4.47379 10.2315,7.09151 1.02202,1.24592 3.5182,3.685191 5.54708,5.420601 3.59281,3.07311 5.67947,5.48818 7.02644,8.13228 0.48249,0.94713 1.31505,1.60744 3.07885,2.44186 1.32964,0.62903 2.68128,1.14548 3.00365,1.14766 1.04686,0.007 4.53703,2.25089 6.40175,4.11561 3.69365,3.69365 7.81568,10.7190198 10.18485,17.35850985 0.57248,1.60433995 1.17955,3.09894995 1.34906,3.32134995 0.41262,0.54139 1.11698,3.46646 1.41466,5.87483 0.13282,1.0745502 0.57016,2.9208302 0.97189,4.1028402 0.40172,1.18201 1.199,4.25915 1.77172,6.83808 0.57273,2.57893 1.46265,6.06255 1.97761,7.74138 0.51495,1.67883 0.93628,3.441 0.93628,3.91593 0,1.36968 2.63216,10.15254 3.82539,12.76438 0.44183,0.9671 1.44624,3.67276 2.23202,6.01257 0.82678,2.4619 2.20883,5.507417 3.28042,7.228817 1.01845,1.63604 2.21592,3.76589 2.66106,4.73298 1.33173,2.8933 2.84949,6.3381 2.84949,6.46737 0,0.0665 -0.39563,0.17717 -0.87918,0.24585 -0.77816,0.11051 -0.86489,0.31599 -0.75482,1.78823 0.0684,0.91485 0.73147,2.97738 1.47349,4.583402 1.63939,3.54825 1.98717,5.07787 1.33356,5.86542 -0.53721,0.6473 -1.33093,0.71067 -2.57947,0.20595 z" />
    <path
       d="m 215.21706,211.86815 c -0.45117,-0.18238 -1.19255,-0.9625 -1.6475,-1.7336 -0.98809,-1.67468 -2.61957,-1.91603 -3.82128,-0.5653 -1.95452,2.19691 -6.23622,2.87676 -10.2163,1.62215 -2.658,-0.83786 -3.30464,-1.57316 -8.0412,-9.14374 -2.86453,-4.57845 -4.35272,-6.53966 -6.23331,-8.21454 -1.56503,-1.39383 -2.93747,-3.07649 -3.74485,-4.59128 -1.36759,-2.56587 -2.00489,-2.89317 -2.96483,-1.52267 -0.71937,1.02705 -0.78328,2.61817 -0.16008,3.98594 0.34593,0.75922 0.33501,1.12006 -0.0478,1.58138 -0.40808,0.4917 -1.61357,0.59662 -6.79783,0.5917 -3.466,-0.003 -6.56247,-0.1708 -6.88107,-0.37225 -0.4851,-0.30674 -0.40233,-0.55094 0.50928,-1.50245 0.91712,-0.95726 1.49789,-1.1744 3.6882,-1.37893 2.57862,-0.2408 2.62119,-0.26411 5.25425,-2.877 2.87356,-2.85154 3.40178,-4.39772 1.95096,-5.71069 -1.01219,-0.91602 -11.27969,-5.34557 -12.3908,-5.34557 -0.65408,0 -1.28991,0.49888 -2.11658,1.66068 -1.70792,2.40032 -2.48591,3.24304 -3.48997,3.7804 -1.39171,0.74482 -3.96237,5.00267 -3.96237,6.56298 0,1.83541 0.62371,2.84433 1.75836,2.84433 0.93259,0 2.08302,1.36858 1.57635,1.87526 -0.32645,0.32645 -14.30664,0.54173 -15.05713,0.23187 -0.72097,-0.29768 1.62775,-1.25131 3.19171,-1.2959 1.70774,-0.0487 2.27024,-0.43306 3.11626,-2.12935 0.44233,-0.88686 1.82662,-2.6675 3.07621,-3.95696 2.51925,-2.59964 3.90123,-4.81094 3.90123,-6.24235 0,-1.52697 -2.67356,-6.45336 -4.97828,-9.17315 -1.17487,-1.38645 -3.60958,-4.75911 -5.41047,-7.49478 -1.8009,-2.73568 -3.45706,-5.08688 -3.68037,-5.22489 -0.72436,-0.44768 -2.58403,-4.60139 -3.67318,-8.20432 -0.5847,-1.9342 -1.57941,-4.92341 -2.21048,-6.6427 -1.325,-3.60984 -2.43039,-7.28807 -3.11186,-10.3548 -0.26266,-1.18201 -0.63314,-2.66364 -0.82329,-3.2925 -1.04469,-3.45495 -0.76787,-8.66293 0.62233,-11.70821 0.78793,-1.72599 1.67985,-5.85234 1.92138,-8.88898 0.17777,-2.23499 0.10077,-2.6895 -0.5564,-3.28423 -0.41949,-0.37964 -0.76272,-0.89974 -0.76272,-1.15578 0,-0.25604 -0.27121,-1.00919 -0.60269,-1.67366 -0.97465,-1.95372 -3.31413,-2.961226 -9.16635,-3.947516 -2.88389,-0.48603 -5.84347,-1.1344 -6.57683,-1.44082 -1.1441,-0.47804 -1.26168,-0.64351 -0.82828,-1.16572 1.17919,-1.42084 6.04169,-3.561491 9.74995,-4.292281 3.06186,-0.6034 4.89017,-1.48629 6.49298,-3.13546 0.91026,-0.93659 2.15155,-1.81634 2.75842,-1.95499 0.60687,-0.13866 2.59801,-0.7482 4.42476,-1.35454 4.31189,-1.43122 6.48419,-1.72396 8.62421,-1.16219 2.62291,0.68853 8.08422,4.47379 10.2315,7.09151 1.02202,1.24592 3.5182,3.685191 5.54708,5.420601 3.59281,3.073106 5.67947,5.488176 7.02644,8.132276 0.48249,0.94713 1.31505,1.60744 3.07885,2.44186 1.32964,0.62903 2.68128,1.14548 3.00365,1.14766 1.04686,0.007 4.53703,2.25089 6.40175,4.11561 3.69365,3.69365 7.81568,10.71902 10.18485,17.35851 0.57248,1.60434 1.17955,3.09895 1.34906,3.32135 0.41262,0.54139 1.11698,3.46646 1.41466,5.87483 0.13282,1.07455 0.57016,2.92083 0.97189,4.10284 0.40172,1.18201 1.199,4.25915 1.77172,6.83808 0.57273,2.57893 1.46265,6.06255 1.97761,7.74138 0.51495,1.67883 0.93628,3.441 0.93628,3.91593 0,1.36968 2.63216,10.15254 3.82539,12.76438 0.44183,0.9671 1.44624,3.67276 2.23202,6.01257 0.82678,2.4619 2.20883,5.50742 3.28042,7.22882 1.01845,1.63604 2.21592,3.76589 2.66106,4.73298 1.33173,2.8933 2.84949,6.3381 2.84949,6.46737 0,0.0665 -0.39563,0.17717 -0.87918,0.24585 -0.77816,0.11051 -0.86489,0.31599 -0.75482,1.78823 0.0684,0.91485 0.73147,2.97738 1.47349,4.5834 1.63939,3.54825 1.98717,5.07787 1.33356,5.86542 -0.53721,0.6473 -1.33093,0.71067 -2.57947,0.20595 z"
       id="path3007"
       style="fill:#000000"
       inkscape:connector-curvature="0" />
    <path
       inkscape:connector-curvature="0"
       style="fill:#000000"
       id="path3009"
       d="m 71.1111,220.34497 c -0.45117,-0.18238 -1.19255,-0.9625 -1.6475,-1.7336 -0.98809,-1.67468 -2.61957,-1.91603 -3.82128,-0.5653 -1.95452,2.19691 -6.23622,2.87676 -10.2163,1.62215 -2.658,-0.83786 -3.30464,-1.57316 -8.0412,-9.14374 -2.86453,-4.57845 -4.35272,-6.53966 -6.23331,-8.21454 -1.56503,-1.39383 -2.93747,-3.07649 -3.74485,-4.59128 -1.36759,-2.56587 -2.00489,-2.89317 -2.96483,-1.52267 -0.71937,1.02705 -0.78328,2.61817 -0.16008,3.98594 0.34593,0.75922 0.33501,1.12006 -0.0478,1.58138 -0.40808,0.4917 -1.61357,0.59662 -6.79783,0.5917 -3.466,-0.003 -6.56247,-0.1708 -6.88107,-0.37225 -0.4851,-0.30674 -0.40233,-0.55094 0.50928,-1.50245 0.91712,-0.95726 1.49789,-1.1744 3.6882,-1.37893 2.57862,-0.2408 2.62119,-0.26411 5.25425,-2.877 2.87356,-2.85154 3.40178,-4.39772 1.95096,-5.71069 -1.01219,-0.91602 -11.27969,-5.34557 -12.3908,-5.34557 -0.65408,0 -1.28991,0.49888 -2.11658,1.66068 -1.70792,2.40032 -2.48591,3.24304 -3.48997,3.7804 -1.39171,0.74482 -3.9623702,5.00267 -3.9623702,6.56298 0,1.83541 0.6237102,2.84433 1.7583602,2.84433 0.93259,0 2.08302,1.36858 1.57635,1.87526 -0.32645,0.32645 -14.30664019,0.54173 -15.0571302,0.23187 -0.72097,-0.29768 1.62775001,-1.25131 3.19171,-1.2959 1.70774,-0.0487 2.27024,-0.43306 3.11626,-2.12935 0.44233,-0.88686 1.82662,-2.6675 3.07621,-3.95696 2.5192502,-2.59964 3.9012302,-4.81094 3.9012302,-6.24235 0,-1.52697 -2.6735602,-6.45336 -4.9782802,-9.17315 -1.17487,-1.38645 -3.60958,-4.75911 -5.41047,-7.49478 -1.80089999,-2.73568 -3.45706,-5.08688 -3.68037,-5.22489 -0.72436,-0.44768 -2.58403,-4.60139 -3.67318,-8.20432 -0.5847,-1.9342 -1.57941,-4.92341 -2.21048,-6.6427 -1.325,-3.60984 -2.4303898,-7.28807 -3.1118598,-10.3548 -0.26266,-1.18201 -0.63314,-2.66364 -0.82329,-3.2925 -1.04469,-3.45495 -0.76787,-8.66293 0.62233,-11.70821 0.78793,-1.72599 1.67985,-5.85234 1.9213798,-8.88898 0.17777,-2.23499 0.10077,-2.6895 -0.5563998,-3.28423 -0.41949,-0.37964 -0.76272,-0.89974 -0.76272,-1.15578 0,-0.25604 -0.27121,-1.00919 -0.60269,-1.67366 -0.97465,-1.95372 -3.31413,-2.96122 -9.16635,-3.94751 -2.88389,-0.48603 -5.84347,-1.1344 -6.57683,-1.44082 -1.1441,-0.47804 -1.26168,-0.64351 -0.82828,-1.16572 1.17919,-1.42084 6.04169,-3.5615 9.74995,-4.29229 3.06186,-0.603396 4.89017,-1.486286 6.49298,-3.135456 0.91026,-0.93659 2.1515498,-1.81634 2.7584198,-1.95499 0.60687,-0.13866 2.59801,-0.7482 4.42476,-1.35454 4.31189001,-1.43122 6.48419,-1.72396 8.62421,-1.16219 2.62291,0.68853 8.0842202,4.47379 10.2315002,7.091506 1.02202,1.24592 3.5182,3.6852 5.54708,5.42061 3.59281,3.0731 5.67947,5.48817 7.02644,8.13227 0.48249,0.94713 1.31505,1.60744 3.07885,2.44186 1.32964,0.62903 2.68128,1.14548 3.00365,1.14766 1.04686,0.007 4.53703,2.25089 6.40175,4.11561 3.69365,3.69365 7.81568,10.71902 10.18485,17.35851 0.57248,1.60434 1.17955,3.09895 1.34906,3.32135 0.41262,0.54139 1.11698,3.46646 1.41466,5.87483 0.13282,1.07455 0.57016,2.92083 0.97189,4.10284 0.40172,1.18201 1.199,4.25915 1.77172,6.83808 0.57273,2.57893 1.46265,6.06255 1.97761,7.74138 0.51495,1.67883 0.93628,3.441 0.93628,3.91593 0,1.36968 2.63216,10.15254 3.82539,12.76438 0.44183,0.9671 1.44624,3.67276 2.23202,6.01257 0.82678,2.4619 2.20883,5.50742 3.28042,7.22882 1.01845,1.63604 2.21592,3.76589 2.66106,4.73298 1.33173,2.8933 2.84949,6.3381 2.84949,6.46737 0,0.0665 -0.39563,0.17717 -0.87918,0.24585 -0.77816,0.11051 -0.86489,0.31599 -0.75482,1.78823 0.0684,0.91485 0.73147,2.97738 1.47349,4.5834 1.63939,3.54825 1.98717,5.07787 1.33356,5.86542 -0.53721,0.6473 -1.33093,0.71067 -2.57947,0.20595 z" />
    <path
       d="m 200.52391,-35.0899 c -0.45117,-0.18238 -1.19255,-0.9625 -1.6475,-1.7336 -0.98809,-1.67468 -2.61957,-1.91603 -3.82128,-0.5653 -1.95452,2.19691 -6.23622,2.87676 -10.2163,1.62215 -2.65801,-0.83786 -3.30464,-1.57316 -8.04121,-9.14374 -2.86452,-4.57845 -4.35272,-6.53966 -6.23331,-8.21454 -1.56502,-1.39383 -2.93747,-3.07649 -3.74484,-4.59128 -1.36759,-2.56587 -2.0049,-2.89317 -2.96483,-1.52267 -0.71938,1.02705 -0.78328,2.61817 -0.16008,3.98594 0.34593,0.75922 0.33501,1.12006 -0.0478,1.58138 -0.40808,0.4917 -1.61357,0.59662 -6.79784,0.5917 -3.46599,-0.003 -6.56247,-0.1708 -6.88106,-0.37225 -0.48511,-0.30674 -0.40233,-0.55094 0.50927,-1.50245 0.91712,-0.95726 1.49789,-1.1744 3.6882,-1.37893 2.57862,-0.2408 2.62119,-0.26411 5.25426,-2.877 2.87356,-2.85154 3.40178,-4.397717 1.95096,-5.710687 -1.01219,-0.91602 -11.2797,-5.34557 -12.3908,-5.34557 -0.65408,0 -1.28992,0.49888 -2.11658,1.66068 -1.70793,2.40032 -2.48591,3.24304 -3.48998,3.7804 -1.3917,0.74482 -3.96237,5.002667 -3.96237,6.562977 0,1.83541 0.62372,2.84433 1.75837,2.84433 0.93259,0 2.08302,1.36858 1.57634,1.87526 -0.32644,0.32645 -14.30663,0.54173 -15.05712,0.23187 -0.72097,-0.29768 1.62775,-1.25131 3.19171,-1.2959 1.70774,-0.0487 2.27024,-0.43306 3.11626,-2.12935 0.44232,-0.88686 1.82662,-2.6675 3.07621,-3.95696 2.51924,-2.599637 3.90122,-4.810937 3.90122,-6.242347 0,-1.52697 -2.67355,-6.45336 -4.97827,-9.17315 -1.17487,-1.38645 -3.60958,-4.75911 -5.41048,-7.49478 -1.80089,-2.73568 -3.45705,-5.08688 -3.68036,-5.22489 -0.72436,-0.44768 -2.58403,-4.60139 -3.67318,-8.20432 -0.5847,-1.9342 -1.57942,-4.923413 -2.21048,-6.642703 -1.325,-3.60984 -2.43039,-7.28807 -3.11186,-10.3548 -0.26266,-1.18201 -0.63314,-2.66364 -0.8233,-3.2925 -1.04469,-3.45495 -0.76787,-8.66293 0.62233,-11.70821 0.78793,-1.72599 1.67986,-5.85234 1.92139,-8.88898 0.17777,-2.23499 0.10077,-2.6895 -0.5564,-3.28423 -0.4195,-0.37964 -0.76272,-0.89974 -0.76272,-1.15578 0,-0.25604 -0.27122,-1.00919 -0.6027,-1.67366 -0.97464,-1.95372 -3.31413,-2.96123 -9.16634,-3.94752 -2.8839,-0.48603 -5.84347,-1.1344 -6.57683,-1.44082 -1.14411,-0.47804 -1.26168,-0.64351 -0.82828,-1.16572 1.17919,-1.42084 6.04169,-3.56149 9.74995,-4.29228 3.06186,-0.6034 4.89017,-1.48629 6.49297,-3.13546 0.91026,-0.93659 2.15156,-1.81634 2.75843,-1.95499 0.60687,-0.13866 2.59801,-0.7482 4.42475,-1.35454 4.3119,-1.43122 6.4842,-1.72396 8.62422,-1.16219 2.62291,0.68853 8.08422,4.47379 10.2315,7.09151 1.02201,1.24592 3.5182,3.68519 5.54708,5.4206 3.5928,3.07311 5.67946,5.48818 7.02643,8.13228 0.48249,0.94713 1.31505,1.60744 3.07886,2.44186 1.32964,0.62903 2.68128,1.14548 3.00365,1.14766 1.04685,0.007 4.53703,2.25089 6.40175,4.11561 3.69364,3.69365 7.81567,10.71902 10.18485,17.35851 0.57248,1.60434 1.17955,3.09895 1.34906,3.32135 0.41262,0.54139 1.11698,3.46646 1.41465,5.87483 0.13282,1.07455 0.57017,2.92083 0.97189,4.10284 0.40173,1.18201 1.199,4.259153 1.77173,6.838083 0.57273,2.57893 1.46265,6.06255 1.9776,7.74138 0.51496,1.67883 0.93628,3.441 0.93628,3.91593 0,1.36968 2.63217,10.15254 3.8254,12.76438 0.44183,0.9671 1.44624,3.67276 2.23202,6.01257 0.82678,2.4619 2.20883,5.507417 3.28042,7.228817 1.01845,1.63604 2.21592,3.76589 2.66106,4.73298 1.33173,2.8933 2.84949,6.3381 2.84949,6.46737 0,0.0665 -0.39563,0.17717 -0.87918,0.24585 -0.77816,0.11051 -0.86489,0.31599 -0.75482,1.78823 0.0684,0.91485 0.73147,2.97738 1.47349,4.5834 1.63939,3.54825 1.98717,5.07787 1.33356,5.86542 -0.53721,0.6473 -1.33093,0.71067 -2.57947,0.20595 z"
       id="path3020"
       style="fill:#000000"
       inkscape:connector-curvature="0" />
    <path
       inkscape:connector-curvature="0"
       style="fill:#000000"
       id="path3022"
       d="m 73.936715,-55.99939 c -0.45117,-0.18238 -1.19255,-0.9625 -1.6475,-1.7336 -0.98809,-1.67468 -2.61957,-1.91603 -3.82128,-0.5653 -1.95452,2.19691 -6.23622,2.87676 -10.216305,1.62215 -2.658003,-0.83786 -3.304638,-1.57316 -8.041201,-9.143742 -2.864525,-4.57845 -4.35272,-6.53966 -6.233312,-8.21454 -1.565021,-1.39383 -2.93747,-3.07649 -3.744843,-4.59128 -1.367592,-2.56587 -2.004896,-2.89317 -2.964829,-1.52267 -0.719378,1.02705 -0.78328,2.61817 -0.160082,3.98594 0.345929,0.75922 0.335011,1.12006 -0.04784,1.58138 -0.408077,0.4917 -1.613567,0.59662 -6.797836,0.5917 -3.465994,-0.003 -6.56247,-0.1708 -6.881061,-0.37225 -0.485109,-0.30674 -0.402333,-0.55094 0.509272,-1.50245 0.917119,-0.95726 1.49789,-1.1744 3.6882,-1.37893 2.578619,-0.2408 2.621191,-0.26411 5.254256,-2.877 2.873559,-2.85154 3.401782,-4.397717 1.950962,-5.710687 -1.012192,-0.91602 -11.279699,-5.34557 -12.390804,-5.34557 -0.654076,0 -1.289915,0.49888 -2.11658,1.66068 -1.707924,2.40032 -2.48591,3.24304 -3.489974,3.7804 -1.391708,0.74482 -3.962369,5.002667 -3.962369,6.562977 0,1.83541 0.623716,2.84433 1.758364,2.84433 0.932592,0 2.083022,1.36858 1.576344,1.87526 -0.326446,0.32645 -14.306631,0.54173 -15.057123,0.23187 -0.720972,-0.29768 1.627752,-1.25131 3.191706,-1.2959 1.70774,-0.0487 2.270244,-0.43306 3.116266,-2.12935 0.442322,-0.88686 1.826614,-2.6675 3.076208,-3.95696 2.519245,-2.599637 3.901225,-4.810937 3.901225,-6.242347 0,-1.52697 -2.673556,-6.45336 -4.978273,-9.17315 -1.174871,-1.38645 -3.609585,-4.759111 -5.410477,-7.494781 -1.800893,-2.73568 -3.457058,-5.08688 -3.680368,-5.22489 -0.72436,-0.44768 -2.584028,-4.60139 -3.673176,-8.20432 -0.584699,-1.9342 -1.579416,-4.92341 -2.210483,-6.6427 -1.324999,-3.60984 -2.430392,-7.28807 -3.111861,-10.3548 -0.262658,-1.18201 -0.63314,-2.66364 -0.823293,-3.2925 -1.044691,-3.45495 -0.76787,-8.66293 0.622329,-11.70821 0.78793,-1.72599 1.679856,-5.85234 1.921389,-8.88898 0.17777,-2.23499 0.10077,-2.6895 -0.556401,-3.28423 -0.419497,-0.37964 -0.762723,-0.89974 -0.762723,-1.15578 0,-0.25604 -0.271213,-1.00919 -0.602695,-1.67366 -0.974644,-1.95372 -3.314126,-2.96123 -9.166346,-3.94752 -2.88389,-0.48603 -5.84347,-1.1344 -6.57683,-1.44082 -1.1441,-0.47804 -1.26168,-0.64351 -0.82828,-1.16572 1.17919,-1.42084 6.04169,-3.56149 9.74995,-4.29228 3.06186,-0.6034 4.890169,-1.48629 6.492977,-3.13546 0.910261,-0.93659 2.151552,-1.81634 2.758424,-1.95499 0.606872,-0.13866 2.598012,-0.7482 4.424755,-1.35454 4.311899,-1.43122 6.484194,-1.72396 8.624219,-1.16219 2.622906,0.68853 8.084217,4.47379 10.231498,7.09151 1.022015,1.24592 3.518201,3.68519 5.547078,5.4206 3.592807,3.07311 5.679467,5.48818 7.026435,8.13228 0.482491,0.94713 1.315052,1.60744 3.078853,2.44186 1.329642,0.62903 2.681284,1.14548 3.00365,1.14766 1.046859,0.007 4.537036,2.25089 6.401755,4.11561 3.693644,3.69365 7.815674,10.71902 10.184849,17.35851 0.572476,1.60434 1.179552,3.09895 1.349058,3.32135 0.412621,0.54139 1.116978,3.46646 1.414657,5.87483 0.132819,1.07455 0.570167,2.92083 0.97189,4.10284 0.401723,1.18201 1.199,4.25915 1.771726,6.83808 0.572726,2.57893 1.462649,6.06255 1.977603,7.74138 0.514954,1.67883 0.936281,3.441 0.936281,3.91593 0,1.36968 2.632166,10.152541 3.825396,12.764381 0.44183,0.9671 1.44624,3.67276 2.23202,6.01257 0.82678,2.4619 2.20883,5.507417 3.28042,7.228817 1.01845,1.63604 2.21592,3.76589 2.66106,4.73298 1.33173,2.8933 2.84949,6.3381 2.84949,6.46737 0,0.0665 -0.39563,0.17717 -0.87918,0.24585 -0.77816,0.11051 -0.86489,0.31599 -0.75482,1.78823 0.0684,0.91485 0.73147,2.97738 1.47349,4.583402 1.63939,3.54825 1.98717,5.07787 1.33356,5.86542 -0.53721,0.6473 -1.33093,0.71067 -2.57947,0.20595 z" />
    <path
       d="m 333.89256,-80.864732 c -0.45117,-0.18238 -1.19255,-0.9625 -1.6475,-1.7336 -0.98809,-1.67468 -2.61957,-1.91603 -3.82128,-0.5653 -1.95452,2.19691 -6.23622,2.87676 -10.2163,1.62215 -2.658,-0.83786 -3.30464,-1.57316 -8.0412,-9.143742 -2.86453,-4.57845 -4.35272,-6.53966 -6.23331,-8.21454 -1.56503,-1.393826 -2.93747,-3.076486 -3.74485,-4.591276 -1.36759,-2.56587 -2.00489,-2.89317 -2.96483,-1.52267 -0.71937,1.02705 -0.78328,2.61817 -0.16008,3.98594 0.34593,0.75922 0.33501,1.120056 -0.0478,1.581376 -0.40808,0.4917 -1.61357,0.59662 -6.79783,0.5917 -3.466,-0.003 -6.56247,-0.1708 -6.88107,-0.37225 -0.4851,-0.30674 -0.40233,-0.55094 0.50928,-1.502446 0.91712,-0.95726 1.49789,-1.1744 3.6882,-1.37893 2.57862,-0.2408 2.62119,-0.26411 5.25425,-2.877 2.87356,-2.85154 3.40178,-4.39772 1.95096,-5.71069 -1.01219,-0.91602 -11.27969,-5.34557 -12.3908,-5.34557 -0.65408,0 -1.28991,0.49888 -2.11658,1.66068 -1.70792,2.40032 -2.48591,3.24304 -3.48997,3.7804 -1.39171,0.74482 -3.96237,5.00267 -3.96237,6.56298 0,1.83541 0.62371,2.84433 1.75836,2.84433 0.93259,0 2.08302,1.368576 1.57635,1.875256 -0.32645,0.32645 -14.30664,0.54173 -15.05713,0.23187 -0.72097,-0.29768 1.62775,-1.251306 3.19171,-1.295896 1.70774,-0.0487 2.27024,-0.43306 3.11626,-2.12935 0.44233,-0.88686 1.82662,-2.6675 3.07621,-3.95696 2.51925,-2.59964 3.90123,-4.81094 3.90123,-6.24235 0,-1.52697 -2.67356,-6.45336 -4.97828,-9.17315 -1.17487,-1.38645 -3.60958,-4.75911 -5.41047,-7.49478 -1.8009,-2.73568 -3.45706,-5.08688 -3.68037,-5.22489 -0.72436,-0.44768 -2.58403,-4.60139 -3.67318,-8.20432 -0.5847,-1.9342 -1.57941,-4.92341 -2.21048,-6.6427 -1.325,-3.60984 -2.43039,-7.28807 -3.11186,-10.3548 -0.26266,-1.18201 -0.63314,-2.66364 -0.82329,-3.2925 -1.04469,-3.45495 -0.76787,-8.66293 0.62233,-11.70821 0.78793,-1.72599 1.67985,-5.85234 1.92138,-8.88898 0.17777,-2.23499 0.10077,-2.6895 -0.5564,-3.28423 -0.41949,-0.37964 -0.76272,-0.89974 -0.76272,-1.15578 0,-0.25604 -0.27121,-1.00919 -0.60269,-1.67366 -0.97465,-1.95372 -3.31413,-2.96123 -9.16635,-3.94752 -2.88389,-0.48603 -5.84347,-1.1344 -6.57683,-1.44082 -1.1441,-0.47804 -1.26168,-0.64351 -0.82828,-1.16572 1.17919,-1.42084 6.04169,-3.56149 9.74995,-4.29228 3.06186,-0.6034 4.89017,-1.48629 6.49298,-3.13546 0.91026,-0.93659 2.15155,-1.81634 2.75842,-1.95499 0.60687,-0.13866 2.59801,-0.7482 4.42476,-1.35454 4.31189,-1.43122 6.48419,-1.72396 8.62421,-1.16219 2.62291,0.68853 8.08422,4.47379 10.2315,7.09151 1.02202,1.24592 3.5182,3.68519 5.54708,5.4206 3.59281,3.07311 5.67947,5.48818 7.02644,8.13228 0.48249,0.94713 1.31505,1.60744 3.07885,2.44186 1.32964,0.62903 2.68128,1.14548 3.00365,1.14766 1.04686,0.007 4.53703,2.25089 6.40175,4.11561 3.69365,3.69365 7.81568,10.71902 10.18485,17.35851 0.57248,1.60434 1.17955,3.09895 1.34906,3.32135 0.41262,0.54139 1.11698,3.46646 1.41466,5.87483 0.13282,1.07455 0.57016,2.92083 0.97189,4.10284 0.40172,1.18201 1.199,4.25915 1.77172,6.83808 0.57273,2.57893 1.46265,6.06255 1.97761,7.74138 0.51495,1.67883 0.93628,3.441 0.93628,3.91593 0,1.36968 2.63216,10.15254 3.82539,12.76438 0.44183,0.9671 1.44624,3.67276 2.23202,6.01257 0.82678,2.4619 2.20883,5.50742 3.28042,7.22882 1.01845,1.63604 2.21592,3.76589 2.66106,4.73298 1.33173,2.893296 2.84949,6.338096 2.84949,6.467366 0,0.0665 -0.39563,0.17717 -0.87918,0.24585 -0.77816,0.11051 -0.86489,0.31599 -0.75482,1.78823 0.0684,0.91485 0.73147,2.97738 1.47349,4.583402 1.63939,3.54825 1.98717,5.07787 1.33356,5.86542 -0.53721,0.6473 -1.33093,0.71067 -2.57947,0.20595 z"
       id="path3024"
       style="fill:#000000"
       inkscape:connector-curvature="0" />
    <path
       inkscape:connector-curvature="0"
       style="fill:#000000"
       id="path3026"
       d="m 303.376,49.11319 c -0.45117,-0.18238 -1.19255,-0.9625 -1.6475,-1.7336 -0.98809,-1.67468 -2.61957,-1.91603 -3.82128,-0.5653 -1.95452,2.19691 -6.23622,2.87676 -10.2163,1.62215 -2.658,-0.83786 -3.30464,-1.57316 -8.0412,-9.14374 -2.86453,-4.57845 -4.35272,-6.53966 -6.23331,-8.21454 -1.56503,-1.39383 -2.93747,-3.07649 -3.74485,-4.59128 -1.36759,-2.56587 -2.00489,-2.89317 -2.96483,-1.52267 -0.71937,1.02705 -0.78328,2.61817 -0.16008,3.98594 0.34593,0.75922 0.33501,1.12006 -0.0478,1.58138 -0.40808,0.4917 -1.61357,0.59662 -6.79783,0.5917 -3.466,-0.003 -6.56247,-0.1708 -6.88107,-0.37225 -0.4851,-0.30674 -0.40233,-0.55094 0.50928,-1.50245 0.91712,-0.95726 1.49789,-1.1744 3.6882,-1.37893 2.57862,-0.2408 2.62119,-0.26411 5.25425,-2.877 2.87356,-2.85154 3.40178,-4.39772 1.95096,-5.71069 -1.01219,-0.91602 -11.27969,-5.34557 -12.3908,-5.34557 -0.65408,0 -1.28991,0.49888 -2.11658,1.66068 -1.70792,2.40032 -2.48591,3.24304 -3.48997,3.7804 -1.39171,0.74482 -3.96237,5.00267 -3.96237,6.56298 0,1.83541 0.62371,2.84433 1.75836,2.84433 0.93259,0 2.08302,1.36858 1.57635,1.87526 -0.32645,0.32645 -14.30664,0.54173 -15.05713,0.23187 -0.72097,-0.29768 1.62775,-1.25131 3.19171,-1.2959 1.70774,-0.0487 2.27024,-0.43306 3.11626,-2.12935 0.44233,-0.88686 1.82662,-2.6675 3.07621,-3.95696 2.51925,-2.59964 3.90123,-4.81094 3.90123,-6.24235 0,-1.52697 -2.67356,-6.45336 -4.97828,-9.17315 -1.17487,-1.38645 -3.60958,-4.75911 -5.41047,-7.49478 -1.8009,-2.73568 -3.45706,-5.08688 -3.68037,-5.22489 -0.72436,-0.44768 -2.58403,-4.60139 -3.67318,-8.20432 -0.5847,-1.9342 -1.57941,-4.92341 -2.21048,-6.6427 -1.325,-3.60984 -2.43039,-7.28807 -3.11186,-10.3548 -0.26266,-1.18201 -0.63314,-2.66364 -0.82329,-3.2925 -1.04469,-3.45495 -0.76787,-8.66293 0.62233,-11.70821 0.78793,-1.72599 1.67985,-5.85234 1.92138,-8.88898 0.17777,-2.23499 0.10077,-2.6895 -0.5564,-3.28423 -0.41949,-0.37964 -0.76272,-0.89974 -0.76272,-1.15578 0,-0.25604 -0.27121,-1.00919 -0.60269,-1.67366 -0.97465,-1.95372 -3.31413,-2.961226 -9.16635,-3.947516 -2.88389,-0.48603 -5.84347,-1.1344 -6.57683,-1.44082 -1.1441,-0.47804 -1.26168,-0.64351 -0.82828,-1.16572 1.17919,-1.42084 6.04169,-3.561491 9.74995,-4.292281 3.06186,-0.6034 4.89017,-1.48629 6.49298,-3.13546 0.91026,-0.93659 2.15155,-1.81634 2.75842,-1.95499 0.60687,-0.13866 2.59801,-0.7482 4.42476,-1.35454 4.31189,-1.43122 6.48419,-1.72396 8.62421,-1.16219 2.62291,0.68853 8.08422,4.47379 10.2315,7.09151 1.02202,1.24592 3.5182,3.685191 5.54708,5.420601 3.59281,3.073106 5.67947,5.488176 7.02644,8.132276 0.48249,0.94713 1.31505,1.60744 3.07885,2.44186 1.32964,0.62903 2.68128,1.14548 3.00365,1.14766 1.04686,0.007 4.53703,2.25089 6.40175,4.11561 3.69365,3.69365 7.81568,10.71902 10.18485,17.35851 0.57248,1.60434 1.17955,3.09895 1.34906,3.32135 0.41262,0.54139 1.11698,3.46646 1.41466,5.87483 0.13282,1.07455 0.57016,2.92083 0.97189,4.10284 0.40172,1.18201 1.199,4.25915 1.77172,6.83808 0.57273,2.57893 1.46265,6.06255 1.97761,7.74138 0.51495,1.67883 0.93628,3.441 0.93628,3.91593 0,1.36968 2.63216,10.15254 3.82539,12.76438 0.44183,0.9671 1.44624,3.67276 2.23202,6.01257 0.82678,2.4619 2.20883,5.50742 3.28042,7.22882 1.01845,1.63604 2.21592,3.76589 2.66106,4.73298 1.33173,2.8933 2.84949,6.3381 2.84949,6.46737 0,0.0665 -0.39563,0.17717 -0.87918,0.24585 -0.77816,0.11051 -0.86489,0.31599 -0.75482,1.78823 0.0684,0.91485 0.73147,2.97738 1.47349,4.5834 1.63939,3.54825 1.98717,5.07787 1.33356,5.86542 -0.53721,0.6473 -1.33093,0.71067 -2.57947,0.20595 z" />
    <path
       d="m 159.27004,57.59001 c -0.45117,-0.18238 -1.19255,-0.9625 -1.6475,-1.7336 -0.98809,-1.67468 -2.61957,-1.91603 -3.82128,-0.5653 -1.95452,2.19691 -6.23622,2.87676 -10.2163,1.62215 -2.658,-0.83786 -3.30464,-1.57316 -8.0412,-9.14374 -2.86453,-4.57845 -4.35272,-6.53966 -6.23331,-8.21454 -1.56503,-1.39383 -2.93747,-3.07649 -3.74485,-4.59128 -1.36759,-2.56587 -2.00489,-2.89317 -2.96483,-1.52267 -0.71937,1.02705 -0.78328,2.61817 -0.16008,3.98594 0.34593,0.75922 0.33501,1.12006 -0.0478,1.58138 -0.40808,0.4917 -1.61357,0.59662 -6.79783,0.5917 -3.466,-0.003 -6.56247,-0.1708 -6.88107,-0.37225 -0.4851,-0.30674 -0.40233,-0.55094 0.50928,-1.50245 0.91712,-0.95726 1.49789,-1.1744 3.6882,-1.37893 2.57862,-0.2408 2.62119,-0.26411 5.25425,-2.877 2.87356,-2.85154 3.40178,-4.39772 1.95096,-5.71069 -1.01219,-0.91602 -11.27969,-5.34557 -12.3908,-5.34557 -0.65408,0 -1.28991,0.49888 -2.11658,1.66068 -1.70792,2.40032 -2.48591,3.24304 -3.48997,3.7804 -1.39171,0.74482 -3.962369,5.00267 -3.962369,6.56298 0,1.83541 0.62371,2.84433 1.75836,2.84433 0.932589,0 2.083019,1.36858 1.576349,1.87526 -0.32645,0.32645 -14.306639,0.54173 -15.057129,0.23187 -0.72097,-0.29768 1.62775,-1.25131 3.19171,-1.2959 1.70774,-0.0487 2.27024,-0.43306 3.11626,-2.12935 0.44233,-0.88686 1.82662,-2.6675 3.07621,-3.95696 2.51925,-2.59964 3.90123,-4.81094 3.90123,-6.24235 0,-1.52697 -2.67356,-6.45336 -4.97828,-9.17315 -1.17487,-1.38645 -3.60958,-4.75911 -5.41047,-7.49478 -1.8009,-2.73568 -3.45706,-5.08688 -3.68037,-5.22489 -0.72436,-0.44768 -2.58403,-4.60139 -3.67318,-8.20432 -0.5847,-1.9342 -1.57941,-4.92341 -2.21048,-6.6427 -1.325,-3.60984 -2.43039,-7.28807 -3.11186,-10.3548 -0.26266,-1.18201 -0.63314,-2.66364 -0.82329,-3.2925 -1.04469,-3.45495 -0.76787,-8.66293 0.62233,-11.70821 0.78793,-1.72599 1.67985,-5.85234 1.92138,-8.88898 0.17777,-2.23499 0.10077,-2.6895 -0.5564,-3.28423 -0.41949,-0.37964 -0.76272,-0.89974 -0.76272,-1.15578 0,-0.25604 -0.27121,-1.00919 -0.60269,-1.67366 -0.97465,-1.95372 -3.31413,-2.96122 -9.16635,-3.94751 -2.88389,-0.48603 -5.84347,-1.1344 -6.57683,-1.44082 -1.1441,-0.47804 -1.26168,-0.64351 -0.82828,-1.16572 1.17919,-1.42084 6.04169,-3.5615 9.74995,-4.29229 3.06186,-0.603396 4.89017,-1.486286 6.49298,-3.135456 0.91026,-0.93659 2.15155,-1.81634 2.75842,-1.95499 0.60687,-0.13866 2.59801,-0.7482 4.42476,-1.35454 4.31189,-1.43122 6.48419,-1.72396 8.62421,-1.16219 2.62291,0.68853 8.084219,4.47379 10.231499,7.091506 1.02202,1.24592 3.5182,3.6852 5.54708,5.42061 3.59281,3.0731 5.67947,5.48817 7.02644,8.13227 0.48249,0.94713 1.31505,1.60744 3.07885,2.44186 1.32964,0.62903 2.68128,1.14548 3.00365,1.14766 1.04686,0.007 4.53703,2.25089 6.40175,4.11561 3.69365,3.69365 7.81568,10.71902 10.18485,17.35851 0.57248,1.60434 1.17955,3.09895 1.34906,3.32135 0.41262,0.54139 1.11698,3.46646 1.41466,5.87483 0.13282,1.07455 0.57016,2.92083 0.97189,4.10284 0.40172,1.18201 1.199,4.25915 1.77172,6.83808 0.57273,2.57893 1.46265,6.06255 1.97761,7.74138 0.51495,1.67883 0.93628,3.441 0.93628,3.91593 0,1.36968 2.63216,10.15254 3.82539,12.76438 0.44183,0.9671 1.44624,3.67276 2.23202,6.01257 0.82678,2.4619 2.20883,5.50742 3.28042,7.22882 1.01845,1.63604 2.21592,3.76589 2.66106,4.73298 1.33173,2.8933 2.84949,6.3381 2.84949,6.46737 0,0.0665 -0.39563,0.17717 -0.87918,0.24585 -0.77816,0.11051 -0.86489,0.31599 -0.75482,1.78823 0.0684,0.91485 0.73147,2.97738 1.47349,4.5834 1.63939,3.54825 1.98717,5.07787 1.33356,5.86542 -0.53721,0.6473 -1.33093,0.71067 -2.57947,0.20595 z"
       id="path3028"
       style="fill:#000000"
       inkscape:connector-curvature="0" />
    <path
       inkscape:connector-curvature="0"
       style="fill:#000000"
       id="path3032"
       d="m 297.72479,261.03372 c -0.45117,-0.18238 -1.19255,-0.9625 -1.6475,-1.7336 -0.98809,-1.67468 -2.61957,-1.91603 -3.82128,-0.5653 -1.95452,2.19691 -6.23622,2.87676 -10.2163,1.62215 -2.65801,-0.83786 -3.30464,-1.57316 -8.04121,-9.14374 -2.86452,-4.57845 -4.35272,-6.53966 -6.23331,-8.21454 -1.56502,-1.39383 -2.93747,-3.07649 -3.74484,-4.59128 -1.36759,-2.56587 -2.0049,-2.89317 -2.96483,-1.52267 -0.71938,1.02705 -0.78328,2.61817 -0.16008,3.98594 0.34593,0.75922 0.33501,1.12006 -0.0478,1.58138 -0.40808,0.4917 -1.61357,0.59662 -6.79784,0.5917 -3.46599,-0.003 -6.56247,-0.1708 -6.88106,-0.37225 -0.48511,-0.30674 -0.40233,-0.55094 0.50927,-1.50245 0.91712,-0.95726 1.49789,-1.1744 3.6882,-1.37893 2.57862,-0.2408 2.62119,-0.26411 5.25426,-2.877 2.87356,-2.85154 3.40178,-4.39772 1.95096,-5.71069 -1.01219,-0.91602 -11.2797,-5.34557 -12.3908,-5.34557 -0.65408,0 -1.28992,0.49888 -2.11658,1.66068 -1.70793,2.40032 -2.48591,3.24304 -3.48998,3.7804 -1.3917,0.74482 -3.96237,5.00267 -3.96237,6.56298 0,1.83541 0.62372,2.84433 1.75837,2.84433 0.93259,0 2.08302,1.36858 1.57634,1.87526 -0.32644,0.32645 -14.30663,0.54173 -15.05712,0.23187 -0.72097,-0.29768 1.62775,-1.25131 3.19171,-1.2959 1.70774,-0.0487 2.27024,-0.43306 3.11626,-2.12935 0.44232,-0.88686 1.82662,-2.6675 3.07621,-3.95696 2.51924,-2.59964 3.90122,-4.81094 3.90122,-6.24235 0,-1.52697 -2.67355,-6.45336 -4.97827,-9.17315 -1.17487,-1.38645 -3.60958,-4.75911 -5.41048,-7.49478 -1.80089,-2.73568 -3.45705,-5.08688 -3.68036,-5.22489 -0.72436,-0.44768 -2.58403,-4.60139 -3.67318,-8.20432 -0.5847,-1.9342 -1.57942,-4.92341 -2.21048,-6.6427 -1.325,-3.60984 -2.4304,-7.28807 -3.11186,-10.3548 -0.26266,-1.18201 -0.63314,-2.66364 -0.8233,-3.2925 -1.04469,-3.45495 -0.76787,-8.66293 0.62233,-11.70821 0.78793,-1.72599 1.67986,-5.85234 1.92139,-8.88898 0.17777,-2.23499 0.10077,-2.6895 -0.5564,-3.28423 -0.4195,-0.37964 -0.76272,-0.89974 -0.76272,-1.15578 0,-0.25604 -0.27122,-1.00919 -0.6027,-1.67366 -0.97464,-1.95372 -3.31413,-2.96123 -9.16634,-3.94752 -2.8839,-0.48603 -5.84347,-1.1344 -6.57683,-1.44082 -1.14411,-0.47804 -1.26168,-0.64351 -0.82829,-1.16572 1.1792,-1.42084 6.0417,-3.56149 9.74996,-4.29228 3.06186,-0.6034 4.89016,-1.48629 6.49297,-3.13546 0.91026,-0.93659 2.15156,-1.81634 2.75843,-1.95499 0.60687,-0.13866 2.59801,-0.7482 4.42475,-1.35454 4.3119,-1.43122 6.4842,-1.72396 8.62422,-1.16219 2.62291,0.68853 8.08422,4.47379 10.2315,7.09151 1.02201,1.24592 3.5182,3.68519 5.54708,5.4206 3.5928,3.07311 5.67946,5.48818 7.02643,8.13228 0.48249,0.94713 1.31505,1.60744 3.07886,2.44186 1.32964,0.62903 2.68128,1.14548 3.00365,1.14766 1.04685,0.007 4.53703,2.25089 6.40175,4.11561 3.69364,3.69365 7.81567,10.71902 10.18485,17.35851 0.57247,1.60434 1.17955,3.09895 1.34906,3.32135 0.41262,0.54139 1.11698,3.46646 1.41465,5.87483 0.13282,1.07455 0.57017,2.92083 0.97189,4.10284 0.40173,1.18201 1.199,4.25915 1.77173,6.83808 0.57273,2.57893 1.46265,6.06255 1.9776,7.74138 0.51496,1.67883 0.93628,3.441 0.93628,3.91593 0,1.36968 2.63217,10.15254 3.8254,12.76438 0.44183,0.9671 1.44624,3.67276 2.23202,6.01257 0.82678,2.4619 2.20883,5.50742 3.28042,7.22882 1.01845,1.63604 2.21592,3.76589 2.66106,4.73298 1.33173,2.8933 2.84949,6.3381 2.84949,6.46737 0,0.0665 -0.39563,0.17717 -0.87918,0.24585 -0.77816,0.11051 -0.86489,0.31599 -0.75482,1.78823 0.0684,0.91485 0.73147,2.97738 1.47349,4.5834 1.63939,3.54825 1.98717,5.07787 1.33356,5.86542 -0.53721,0.6473 -1.33093,0.71067 -2.57947,0.20595 z" />
    <path
       d="m 171.13759,240.12423 c -0.45117,-0.18238 -1.19255,-0.9625 -1.6475,-1.7336 -0.98809,-1.67468 -2.61957,-1.91603 -3.82128,-0.5653 -1.95452,2.19691 -6.23622,2.87676 -10.2163,1.62215 -2.658,-0.83786 -3.30464,-1.57316 -8.0412,-9.14374 -2.86453,-4.57845 -4.35272,-6.53966 -6.23331,-8.21454 -1.56503,-1.39383 -2.93747,-3.07649 -3.74485,-4.59128 -1.36759,-2.56587 -2.00489,-2.89317 -2.96483,-1.52267 -0.71937,1.02705 -0.78328,2.61817 -0.16008,3.98594 0.34593,0.75922 0.33501,1.12006 -0.0478,1.58138 -0.40808,0.4917 -1.61357,0.59662 -6.79783,0.5917 -3.466,-0.003 -6.56247,-0.1708 -6.88106,-0.37225 -0.48511,-0.30674 -0.40234,-0.55094 0.50927,-1.50245 0.91712,-0.95726 1.49789,-1.1744 3.6882,-1.37893 2.57862,-0.2408 2.62119,-0.26411 5.25425,-2.877 2.87356,-2.85154 3.40178,-4.39772 1.95096,-5.71069 -1.01219,-0.91602 -11.27969,-5.34557 -12.3908,-5.34557 -0.65408,0 -1.28991,0.49888 -2.11658,1.66068 -1.70792,2.40032 -2.48591,3.24304 -3.48997,3.7804 -1.39171,0.74482 -3.96237,5.00267 -3.96237,6.56298 0,1.83541 0.62371,2.84433 1.75836,2.84433 0.93259,0 2.08302,1.36858 1.57635,1.87526 -0.32645,0.32645 -14.306635,0.54173 -15.057127,0.23187 -0.720972,-0.29768 1.627752,-1.25131 3.191707,-1.2959 1.70774,-0.0487 2.27024,-0.43306 3.11626,-2.12935 0.44233,-0.88686 1.82662,-2.6675 3.07621,-3.95696 2.51925,-2.59964 3.90123,-4.81094 3.90123,-6.24235 0,-1.52697 -2.67356,-6.45336 -4.97828,-9.17315 -1.17487,-1.38645 -3.60958,-4.75911 -5.41047,-7.49478 -1.800895,-2.73568 -3.45706,-5.08688 -3.68037,-5.22489 -0.72436,-0.44768 -2.584028,-4.60139 -3.673176,-8.20432 -0.584699,-1.9342 -1.579416,-4.92341 -2.210483,-6.6427 -1.324999,-3.60984 -2.430392,-7.28807 -3.111861,-10.3548 -0.262658,-1.18201 -0.63314,-2.66364 -0.823293,-3.2925 -1.044691,-3.45495 -0.76787,-8.66293 0.622329,-11.70821 0.78793,-1.72599 1.679856,-5.85234 1.921389,-8.88898 0.17777,-2.23499 0.10077,-2.6895 -0.556401,-3.28423 -0.419497,-0.37964 -0.762723,-0.89974 -0.762723,-1.15578 0,-0.25604 -0.271213,-1.00919 -0.602695,-1.67366 -0.974644,-1.95372 -3.314126,-2.96123 -9.166346,-3.94752 -2.88389,-0.48603 -5.84347,-1.1344 -6.57683,-1.44082 -1.1441,-0.47804 -1.26168,-0.64351 -0.82828,-1.16572 1.17919,-1.42084 6.04169,-3.56149 9.74995,-4.29228 3.06186,-0.6034 4.890169,-1.48629 6.492977,-3.13546 0.910261,-0.93659 2.151552,-1.81634 2.758424,-1.95499 0.606872,-0.13866 2.598012,-0.7482 4.424755,-1.35454 4.311899,-1.43122 6.484194,-1.72396 8.624214,-1.16219 2.62291,0.68853 8.08422,4.47379 10.2315,7.09151 1.02202,1.24592 3.5182,3.68519 5.54708,5.4206 3.59281,3.07311 5.67947,5.48818 7.02644,8.13228 0.48249,0.94713 1.31505,1.60744 3.07885,2.44186 1.32964,0.62903 2.68128,1.14548 3.00365,1.14766 1.04686,0.007 4.53703,2.25089 6.40175,4.11561 3.69365,3.69365 7.81568,10.71902 10.18485,17.35851 0.57248,1.60434 1.17955,3.09895 1.34906,3.32135 0.41262,0.54139 1.11698,3.46646 1.41466,5.87483 0.13282,1.07455 0.57016,2.92083 0.97189,4.10284 0.40172,1.18201 1.199,4.25915 1.77172,6.83808 0.57273,2.57893 1.46265,6.06255 1.97761,7.74138 0.51495,1.67883 0.93628,3.441 0.93628,3.91593 0,1.36968 2.63216,10.15254 3.82539,12.76438 0.44183,0.9671 1.44624,3.67276 2.23202,6.01257 0.82678,2.4619 2.20883,5.50742 3.28042,7.22882 1.01845,1.63604 2.21592,3.76589 2.66106,4.73298 1.33173,2.8933 2.84949,6.3381 2.84949,6.46737 0,0.0665 -0.39563,0.17717 -0.87918,0.24585 -0.77816,0.11051 -0.86489,0.31599 -0.75482,1.78823 0.0684,0.91485 0.73147,2.97738 1.47349,4.5834 1.63939,3.54825 1.98717,5.07787 1.33356,5.86542 -0.53721,0.6473 -1.33093,0.71067 -2.57947,0.20595 z"
       id="path3034"
       style="fill:#000000"
       inkscape:connector-curvature="0" />
    <path
       inkscape:connector-curvature="0"
       style="fill:#000000"
       id="path3036"
       d="m 431.09344,215.25889 c -0.45117,-0.18238 -1.19255,-0.9625 -1.6475,-1.7336 -0.98809,-1.67468 -2.61957,-1.91603 -3.82128,-0.5653 -1.95452,2.19691 -6.23622,2.87676 -10.2163,1.62215 -2.658,-0.83786 -3.30464,-1.57316 -8.0412,-9.14374 -2.86453,-4.57845 -4.35272,-6.53966 -6.23331,-8.21454 -1.56503,-1.39383 -2.93747,-3.07649 -3.74485,-4.59128 -1.36759,-2.56587 -2.00489,-2.89317 -2.96483,-1.52267 -0.71937,1.02705 -0.78328,2.61817 -0.16008,3.98594 0.34593,0.75922 0.33501,1.12006 -0.0478,1.58138 -0.40808,0.4917 -1.61357,0.59662 -6.79783,0.5917 -3.466,-0.003 -6.56247,-0.1708 -6.88107,-0.37225 -0.4851,-0.30674 -0.40233,-0.55094 0.50928,-1.50245 0.91712,-0.95726 1.49789,-1.1744 3.6882,-1.37893 2.57862,-0.2408 2.62119,-0.26411 5.25425,-2.877 2.87356,-2.85154 3.40178,-4.39772 1.95096,-5.71069 -1.01219,-0.91602 -11.27969,-5.34557 -12.3908,-5.34557 -0.65408,0 -1.28991,0.49888 -2.11658,1.66068 -1.70792,2.40032 -2.48591,3.24304 -3.48997,3.7804 -1.39171,0.74482 -3.96237,5.00267 -3.96237,6.56298 0,1.83541 0.62371,2.84433 1.75836,2.84433 0.93259,0 2.08302,1.36858 1.57635,1.87526 -0.32645,0.32645 -14.30664,0.54173 -15.05713,0.23187 -0.72097,-0.29768 1.62775,-1.25131 3.19171,-1.2959 1.70774,-0.0487 2.27024,-0.43306 3.11626,-2.12935 0.44233,-0.88686 1.82662,-2.6675 3.07621,-3.95696 2.51925,-2.59964 3.90123,-4.81094 3.90123,-6.24235 0,-1.52697 -2.67356,-6.45336 -4.97828,-9.17315 -1.17487,-1.38645 -3.60958,-4.75911 -5.41047,-7.49478 -1.8009,-2.73568 -3.45706,-5.08688 -3.68037,-5.22489 -0.72436,-0.44768 -2.58403,-4.60139 -3.67318,-8.20432 -0.5847,-1.9342 -1.57941,-4.92341 -2.21048,-6.6427 -1.325,-3.60984 -2.43039,-7.28807 -3.11186,-10.3548 -0.26266,-1.18201 -0.63314,-2.66364 -0.82329,-3.2925 -1.04469,-3.45495 -0.76787,-8.66293 0.62233,-11.70821 0.78793,-1.72599 1.67985,-5.85234 1.92138,-8.88898 0.17777,-2.23499 0.10077,-2.6895 -0.5564,-3.28423 -0.41949,-0.37964 -0.76272,-0.89974 -0.76272,-1.15578 0,-0.25604 -0.27121,-1.00919 -0.60269,-1.67366 -0.97465,-1.95372 -3.31413,-2.96123 -9.16635,-3.94752 -2.88389,-0.48603 -5.84347,-1.1344 -6.57683,-1.44082 -1.1441,-0.47804 -1.26168,-0.64351 -0.82828,-1.165721 1.17919,-1.42084 6.04169,-3.561491 9.74995,-4.292281 3.06186,-0.6034 4.89017,-1.48629 6.49298,-3.13546 0.91026,-0.93659 2.15155,-1.81634 2.75842,-1.95499 0.60687,-0.13866 2.59801,-0.7482 4.42476,-1.35454 4.31189,-1.43122 6.48419,-1.72396 8.62421,-1.16219 2.62291,0.68853 8.08422,4.47379 10.2315,7.09151 1.02202,1.24592 3.5182,3.685191 5.54708,5.420602 3.59281,3.07311 5.67947,5.48818 7.02644,8.13228 0.48249,0.94713 1.31505,1.60744 3.07885,2.44186 1.32964,0.62903 2.68128,1.14548 3.00365,1.14766 1.04686,0.007 4.53703,2.25089 6.40175,4.11561 3.69365,3.69365 7.81568,10.71902 10.18485,17.35851 0.57248,1.60434 1.17955,3.09895 1.34906,3.32135 0.41262,0.54139 1.11698,3.46646 1.41466,5.87483 0.13282,1.07455 0.57016,2.92083 0.97189,4.10284 0.40172,1.18201 1.199,4.25915 1.77172,6.83808 0.57273,2.57893 1.46265,6.06255 1.97761,7.74138 0.51495,1.67883 0.93628,3.441 0.93628,3.91593 0,1.36968 2.63216,10.15254 3.82539,12.76438 0.44183,0.9671 1.44624,3.67276 2.23202,6.01257 0.82678,2.4619 2.20883,5.50742 3.28042,7.22882 1.01845,1.63604 2.21592,3.76589 2.66106,4.73298 1.33173,2.8933 2.84949,6.3381 2.84949,6.46737 0,0.0665 -0.39563,0.17717 -0.87918,0.24585 -0.77816,0.11051 -0.86489,0.31599 -0.75482,1.78823 0.0684,0.91485 0.73147,2.97738 1.47349,4.5834 1.63939,3.54825 1.98717,5.07787 1.33356,5.86542 -0.53721,0.6473 -1.33093,0.71067 -2.57947,0.20595 z" />
    <path
       d="m 400.57688,345.23681 c -0.45117,-0.18238 -1.19255,-0.9625 -1.6475,-1.7336 -0.98809,-1.67468 -2.61957,-1.91603 -3.82128,-0.5653 -1.95452,2.19691 -6.23622,2.87676 -10.2163,1.62215 -2.658,-0.83786 -3.30464,-1.57316 -8.0412,-9.14374 -2.86453,-4.57845 -4.35272,-6.53966 -6.23331,-8.21454 -1.56503,-1.39383 -2.93747,-3.07649 -3.74485,-4.59128 -1.36759,-2.56587 -2.00489,-2.89317 -2.96483,-1.52267 -0.71937,1.02705 -0.78328,2.61817 -0.16008,3.98594 0.34593,0.75922 0.33501,1.12006 -0.0478,1.58138 -0.40808,0.4917 -1.61357,0.59662 -6.79783,0.5917 -3.466,-0.003 -6.56247,-0.1708 -6.88107,-0.37225 -0.4851,-0.30674 -0.40233,-0.55094 0.50928,-1.50245 0.91712,-0.95726 1.49789,-1.1744 3.6882,-1.37893 2.57862,-0.2408 2.62119,-0.26411 5.25425,-2.877 2.87356,-2.85154 3.40178,-4.39772 1.95096,-5.71069 -1.01219,-0.91602 -11.27969,-5.34557 -12.3908,-5.34557 -0.65408,0 -1.28991,0.49888 -2.11658,1.66068 -1.70792,2.40032 -2.48591,3.24304 -3.48997,3.7804 -1.39171,0.74482 -3.96237,5.00267 -3.96237,6.56298 0,1.83541 0.62371,2.84433 1.75836,2.84433 0.93259,0 2.08302,1.36858 1.57635,1.87526 -0.32645,0.32645 -14.30664,0.54173 -15.05713,0.23187 -0.72097,-0.29768 1.62775,-1.25131 3.19171,-1.2959 1.70774,-0.0487 2.27024,-0.43306 3.11626,-2.12935 0.44233,-0.88686 1.82662,-2.6675 3.07621,-3.95696 2.51925,-2.59964 3.90123,-4.81094 3.90123,-6.24235 0,-1.52697 -2.67356,-6.45336 -4.97828,-9.17315 -1.17487,-1.38645 -3.60958,-4.75911 -5.41047,-7.49478 -1.8009,-2.73568 -3.45706,-5.08688 -3.68037,-5.22489 -0.72436,-0.44768 -2.58403,-4.60139 -3.67318,-8.20432 -0.5847,-1.9342 -1.57941,-4.92341 -2.21048,-6.6427 -1.325,-3.60984 -2.43039,-7.28807 -3.11186,-10.3548 -0.26266,-1.18201 -0.63314,-2.66364 -0.82329,-3.2925 -1.04469,-3.45495 -0.76787,-8.66293 0.62233,-11.70821 0.78793,-1.72599 1.67985,-5.85234 1.92138,-8.88898 0.17777,-2.23499 0.10077,-2.6895 -0.5564,-3.28423 -0.41949,-0.37964 -0.76272,-0.89974 -0.76272,-1.15578 0,-0.25604 -0.27121,-1.00919 -0.60269,-1.67366 -0.97465,-1.95372 -3.31413,-2.96123 -9.16635,-3.94752 -2.88389,-0.48603 -5.84347,-1.1344 -6.57683,-1.44082 -1.1441,-0.47804 -1.26168,-0.64351 -0.82828,-1.16572 1.17919,-1.42084 6.04169,-3.56149 9.74995,-4.29228 3.06186,-0.6034 4.89017,-1.48629 6.49298,-3.13546 0.91026,-0.93659 2.15155,-1.81634 2.75842,-1.95499 0.60687,-0.13866 2.59801,-0.7482 4.42476,-1.35454 4.31189,-1.43122 6.48419,-1.72396 8.62421,-1.16219 2.62291,0.68853 8.08422,4.47379 10.2315,7.09151 1.02202,1.24592 3.5182,3.68519 5.54708,5.4206 3.59281,3.07311 5.67947,5.48818 7.02644,8.13228 0.48249,0.94713 1.31505,1.60744 3.07885,2.44186 1.32964,0.62903 2.68128,1.14548 3.00365,1.14766 1.04686,0.007 4.53703,2.25089 6.40175,4.11561 3.69365,3.69365 7.81568,10.71902 10.18485,17.35851 0.57248,1.60434 1.17955,3.09895 1.34906,3.32135 0.41262,0.54139 1.11698,3.46646 1.41466,5.87483 0.13282,1.07455 0.57016,2.92083 0.97189,4.10284 0.40172,1.18201 1.199,4.25915 1.77172,6.83808 0.57273,2.57893 1.46265,6.06255 1.97761,7.74138 0.51495,1.67883 0.93628,3.441 0.93628,3.91593 0,1.36968 2.63216,10.15254 3.82539,12.76438 0.44183,0.9671 1.44624,3.67276 2.23202,6.01257 0.82678,2.4619 2.20883,5.50742 3.28042,7.22882 1.01845,1.63604 2.21592,3.76589 2.66106,4.73298 1.33173,2.8933 2.84949,6.3381 2.84949,6.46737 0,0.0665 -0.39563,0.17717 -0.87918,0.24585 -0.77816,0.11051 -0.86489,0.31599 -0.75482,1.78823 0.0684,0.91485 0.73147,2.97738 1.47349,4.5834 1.63939,3.54825 1.98717,5.07787 1.33356,5.86542 -0.53721,0.6473 -1.33093,0.71067 -2.57947,0.20595 z"
       id="path3038"
       style="fill:#000000"
       inkscape:connector-curvature="0" />
    <path
       inkscape:connector-curvature="0"
       style="fill:#000000"
       id="path3040"
       d="m 256.47092,353.71363 c -0.45117,-0.18238 -1.19255,-0.9625 -1.6475,-1.7336 -0.98809,-1.67468 -2.61957,-1.91603 -3.82128,-0.5653 -1.95452,2.19691 -6.23622,2.87676 -10.2163,1.62215 -2.658,-0.83786 -3.30464,-1.57316 -8.0412,-9.14374 -2.86453,-4.57845 -4.35272,-6.53966 -6.23331,-8.21454 -1.56503,-1.39383 -2.93747,-3.07649 -3.74485,-4.59128 -1.36759,-2.56587 -2.00489,-2.89317 -2.96483,-1.52267 -0.71937,1.02705 -0.78328,2.61817 -0.16008,3.98594 0.34593,0.75922 0.33501,1.12006 -0.0478,1.58138 -0.40808,0.4917 -1.61357,0.59662 -6.79783,0.5917 -3.466,-0.003 -6.56247,-0.1708 -6.88107,-0.37225 -0.4851,-0.30674 -0.40233,-0.55094 0.50928,-1.50245 0.91712,-0.95726 1.49789,-1.1744 3.6882,-1.37893 2.57862,-0.2408 2.62119,-0.26411 5.25425,-2.877 2.87356,-2.85154 3.40178,-4.39772 1.95096,-5.71069 -1.01219,-0.91602 -11.27969,-5.34557 -12.3908,-5.34557 -0.65408,0 -1.28991,0.49888 -2.11658,1.66068 -1.70792,2.40032 -2.48591,3.24304 -3.48997,3.7804 -1.39171,0.74482 -3.96237,5.00267 -3.96237,6.56298 0,1.83541 0.62371,2.84433 1.75836,2.84433 0.93259,0 2.08302,1.36858 1.57635,1.87526 -0.32645,0.32645 -14.30664,0.54173 -15.05713,0.23187 -0.72097,-0.29768 1.62775,-1.25131 3.19171,-1.2959 1.70774,-0.0487 2.27024,-0.43306 3.11626,-2.12935 0.44233,-0.88686 1.82662,-2.6675 3.07621,-3.95696 2.51925,-2.59964 3.90123,-4.81094 3.90123,-6.24235 0,-1.52697 -2.67356,-6.45336 -4.97828,-9.17315 -1.17487,-1.38645 -3.60958,-4.75911 -5.41047,-7.49478 -1.8009,-2.73568 -3.45706,-5.08688 -3.68037,-5.22489 -0.72436,-0.44768 -2.58403,-4.60139 -3.67318,-8.20432 -0.5847,-1.9342 -1.57941,-4.92341 -2.21048,-6.6427 -1.325,-3.60984 -2.43039,-7.28807 -3.11186,-10.3548 -0.26266,-1.18201 -0.63314,-2.66364 -0.82329,-3.2925 -1.04469,-3.45495 -0.76787,-8.66293 0.62233,-11.70821 0.78793,-1.72599 1.67985,-5.85234 1.92138,-8.88898 0.17777,-2.23499 0.10077,-2.6895 -0.5564,-3.28423 -0.41949,-0.37964 -0.76272,-0.89974 -0.76272,-1.15578 0,-0.25604 -0.27121,-1.00919 -0.60269,-1.67366 -0.97465,-1.95372 -3.31413,-2.96122 -9.16635,-3.94751 -2.88389,-0.48603 -5.84347,-1.1344 -6.57683,-1.44082 -1.1441,-0.47804 -1.26168,-0.64351 -0.82828,-1.16572 1.17919,-1.42084 6.04169,-3.5615 9.74995,-4.29229 3.06186,-0.6034 4.89017,-1.48629 6.49298,-3.13546 0.91026,-0.93659 2.15155,-1.81634 2.75842,-1.95499 0.60687,-0.13866 2.59801,-0.7482 4.42476,-1.35454 4.31189,-1.43122 6.48419,-1.72396 8.62421,-1.16219 2.62291,0.68853 8.08422,4.47379 10.2315,7.09151 1.02202,1.24592 3.5182,3.6852 5.54708,5.42061 3.59281,3.0731 5.67947,5.48817 7.02644,8.13227 0.48249,0.94713 1.31505,1.60744 3.07885,2.44186 1.32964,0.62903 2.68128,1.14548 3.00365,1.14766 1.04686,0.007 4.53703,2.25089 6.40175,4.11561 3.69365,3.69365 7.81568,10.71902 10.18485,17.35851 0.57248,1.60434 1.17955,3.09895 1.34906,3.32135 0.41262,0.54139 1.11698,3.46646 1.41466,5.87483 0.13282,1.07455 0.57016,2.92083 0.97189,4.10284 0.40172,1.18201 1.199,4.25915 1.77172,6.83808 0.57273,2.57893 1.46265,6.06255 1.97761,7.74138 0.51495,1.67883 0.93628,3.441 0.93628,3.91593 0,1.36968 2.63216,10.15254 3.82539,12.76438 0.44183,0.9671 1.44624,3.67276 2.23202,6.01257 0.82678,2.4619 2.20883,5.50742 3.28042,7.22882 1.01845,1.63604 2.21592,3.76589 2.66106,4.73298 1.33173,2.8933 2.84949,6.3381 2.84949,6.46737 0,0.0665 -0.39563,0.17717 -0.87918,0.24585 -0.77816,0.11051 -0.86489,0.31599 -0.75482,1.78823 0.0684,0.91485 0.73147,2.97738 1.47349,4.5834 1.63939,3.54825 1.98717,5.07787 1.33356,5.86542 -0.53721,0.6473 -1.33093,0.71067 -2.57947,0.20595 z" />
    <path
       d="m -60.56219,194.34939 c -0.45117,-0.18238 -1.19255,-0.9625 -1.6475,-1.7336 -0.98809,-1.67468 -2.61957,-1.91603 -3.82128,-0.5653 -1.95452,2.19691 -6.23622,2.87676 -10.216305,1.62215 -2.658003,-0.83786 -3.304638,-1.57316 -8.041201,-9.14374 -2.864525,-4.57845 -4.35272,-6.53966 -6.233312,-8.21454 -1.565021,-1.39383 -2.93747,-3.07649 -3.744843,-4.59128 -1.367592,-2.56587 -2.004896,-2.89317 -2.964829,-1.52267 -0.719378,1.02705 -0.78328,2.61817 -0.160082,3.98594 0.345929,0.75922 0.335011,1.12006 -0.04784,1.58138 -0.408077,0.4917 -1.613567,0.59662 -6.797838,0.5917 -3.46599,-0.003 -6.56247,-0.1708 -6.88106,-0.37225 -0.48511,-0.30674 -0.40233,-0.55094 0.50927,-1.50245 0.91712,-0.95726 1.49789,-1.1744 3.6882,-1.37893 2.57862,-0.2408 2.62119,-0.26411 5.25426,-2.877 2.873558,-2.85154 3.401781,-4.39771 1.950961,-5.71068 -1.012191,-0.91602 -11.279701,-5.34557 -12.390801,-5.34557 -0.65408,0 -1.28992,0.49888 -2.11658,1.66068 -1.70793,2.40032 -2.48591,3.24304 -3.48998,3.7804 -1.3917,0.74482 -3.96237,5.00266 -3.96237,6.56297 0,1.83541 0.62372,2.84433 1.75837,2.84433 0.93259,0 2.08302,1.36858 1.57634,1.87526 -0.32644,0.32645 -14.30663,0.54173 -15.05712,0.23187 -0.72097,-0.29768 1.62775,-1.25131 3.19171,-1.2959 1.70774,-0.0487 2.27024,-0.43306 3.11626,-2.12935 0.44232,-0.88686 1.82662,-2.6675 3.07621,-3.95696 2.51924,-2.59963 3.90122,-4.81093 3.90122,-6.24234 0,-1.52697 -2.67355,-6.45336 -4.97827,-9.17315 -1.17487,-1.38645 -3.60958,-4.75911 -5.41048,-7.49478 -1.80089,-2.73568 -3.45705,-5.08688 -3.68036,-5.22489 -0.72436,-0.44768 -2.58403,-4.60139 -3.67318,-8.20432 -0.5847,-1.9342 -1.57942,-4.92341 -2.21048,-6.6427 -1.325,-3.60984 -2.43039,-7.28807 -3.11186,-10.3548 -0.26266,-1.18201 -0.63314,-2.66364 -0.8233,-3.2925 -1.04469,-3.45495 -0.76787,-8.66293 0.62233,-11.70821 0.78793,-1.725994 1.67986,-5.852344 1.92139,-8.888984 0.17777,-2.23499 0.10077,-2.6895 -0.5564,-3.28423 -0.4195,-0.37964 -0.76272,-0.89974 -0.76272,-1.15578 0,-0.25604 -0.27122,-1.00919 -0.6027,-1.67366 -0.97464,-1.95372 -3.31413,-2.96123 -9.16634,-3.94752 -2.8839,-0.48603 -5.84347,-1.1344 -6.57683,-1.44082 -1.14411,-0.47804 -1.26168,-0.64351 -0.82828,-1.16572 1.17919,-1.42084 6.04169,-3.56149 9.74995,-4.29228 3.06186,-0.6034 4.89017,-1.48629 6.49297,-3.13546 0.91026,-0.93659 2.15156,-1.81634 2.75843,-1.95499 0.60687,-0.13866 2.59801,-0.7482 4.42475,-1.35454 4.3119,-1.43122 6.4842,-1.72396 8.62422,-1.16219 2.62291,0.68853 8.08422,4.47379 10.2315,7.09151 1.02201,1.24592 3.5182,3.68519 5.54708,5.4206 3.5928,3.07311 5.67946,5.48818 7.02643,8.13228 0.48249,0.94713 1.31505,1.60744 3.07886,2.44186 1.32964,0.62903 2.681279,1.14548 3.003645,1.14766 1.046859,0.007 4.537036,2.25089 6.401755,4.11561 3.693644,3.69365 7.815674,10.719024 10.184849,17.358514 0.572476,1.60434 1.179552,3.09895 1.349058,3.32135 0.412621,0.54139 1.116978,3.46646 1.414657,5.87483 0.132819,1.07455 0.570167,2.92083 0.97189,4.10284 0.401723,1.18201 1.199,4.25915 1.771726,6.83808 0.572726,2.57893 1.462649,6.06255 1.977603,7.74138 0.514954,1.67883 0.936281,3.441 0.936281,3.91593 0,1.36968 2.632166,10.15254 3.825396,12.76438 0.44183,0.9671 1.44624,3.67276 2.23202,6.01257 0.82678,2.4619 2.20883,5.50741 3.28042,7.22881 1.01845,1.63604 2.21592,3.76589 2.66106,4.73298 1.33173,2.8933 2.84949,6.3381 2.84949,6.46737 0,0.0665 -0.39563,0.17717 -0.87918,0.24585 -0.77816,0.11051 -0.86489,0.31599 -0.75482,1.78823 0.0684,0.91485 0.73147,2.97738 1.47349,4.5834 1.63939,3.54825 1.98717,5.07787 1.33356,5.86542 -0.53721,0.6473 -1.33093,0.71067 -2.57947,0.20595 z"
       id="path3044"
       style="fill:#000000"
       inkscape:connector-curvature="0" />
    <path
       inkscape:connector-curvature="0"
       style="fill:#000000"
       id="path3046"
       d="m -187.14939,173.4399 c -0.45117,-0.18238 -1.19255,-0.9625 -1.6475,-1.7336 -0.98809,-1.67468 -2.61957,-1.91603 -3.82128,-0.5653 -1.95452,2.19691 -6.23622,2.87676 -10.2163,1.62215 -2.658,-0.83786 -3.30464,-1.57316 -8.0412,-9.14374 -2.86453,-4.57845 -4.35272,-6.53966 -6.23331,-8.21454 -1.56502,-1.39383 -2.93747,-3.07649 -3.74485,-4.59128 -1.36759,-2.56587 -2.00489,-2.89317 -2.96483,-1.52267 -0.71937,1.02705 -0.78328,2.61817 -0.16008,3.98594 0.34593,0.75922 0.33501,1.12006 -0.0478,1.58138 -0.40807,0.4917 -1.61356,0.59662 -6.79783,0.5917 -3.466,-0.003 -6.56247,-0.1708 -6.88106,-0.37225 -0.48511,-0.30674 -0.40234,-0.55094 0.50927,-1.50245 0.91712,-0.95726 1.49789,-1.1744 3.6882,-1.37893 2.57862,-0.2408 2.62119,-0.26411 5.25425,-2.877 2.87356,-2.85154 3.40179,-4.39772 1.95097,-5.71069 -1.0122,-0.91602 -11.2797,-5.34557 -12.39081,-5.34557 -0.65407,0 -1.28991,0.49888 -2.11658,1.66068 -1.70792,2.40032 -2.48591,3.24304 -3.48997,3.7804 -1.39171,0.74482 -3.96237,5.00267 -3.96237,6.56298 0,1.83541 0.62371,2.84433 1.75836,2.84433 0.93259,0 2.08302,1.36858 1.57635,1.87526 -0.32645,0.32645 -14.30663,0.54173 -15.05713,0.23187 -0.72097,-0.29768 1.62776,-1.25131 3.19171,-1.2959 1.70774,-0.0487 2.27024,-0.43306 3.11626,-2.12935 0.44233,-0.88686 1.82662,-2.6675 3.07621,-3.95696 2.51925,-2.59964 3.90123,-4.81094 3.90123,-6.24235 0,-1.52697 -2.67356,-6.45336 -4.97827,-9.17315 -1.17488,-1.38645 -3.60959,-4.75911 -5.41048,-7.49478 -1.8009,-2.73568 -3.45706,-5.08688 -3.68037,-5.22489 -0.72436,-0.44768 -2.58403,-4.60139 -3.67318,-8.20432 -0.5847,-1.9342 -1.57941,-4.92341 -2.21048,-6.6427 -1.325,-3.60984 -2.43039,-7.288066 -3.11186,-10.354796 -0.26266,-1.18201 -0.63314,-2.66364 -0.82329,-3.2925 -1.04469,-3.45495 -0.76787,-8.66293 0.62233,-11.70821 0.78793,-1.72599 1.67985,-5.85234 1.92138,-8.88898 0.17777,-2.23499 0.10077,-2.6895 -0.5564,-3.28423 -0.41949,-0.37964 -0.76272,-0.89974 -0.76272,-1.15578 0,-0.25604 -0.27121,-1.00919 -0.60269,-1.67366 -0.97465,-1.95372 -3.31413,-2.96123 -9.16635,-3.94752 -2.88389,-0.48603 -5.84347,-1.1344 -6.57683,-1.44082 -1.1441,-0.47804 -1.26168,-0.64351 -0.82828,-1.16572 1.17919,-1.42084 6.04169,-3.561491 9.74995,-4.292281 3.06186,-0.6034 4.89017,-1.48629 6.49298,-3.13546 0.91026,-0.93659 2.15155,-1.81634 2.75842,-1.95499 0.60687,-0.13866 2.59801,-0.7482 4.42476,-1.35454 4.31189,-1.43122 6.48419,-1.72396 8.62421,-1.16219 2.62291,0.68853 8.08422,4.47379 10.2315,7.09151 1.02202,1.24592 3.5182,3.685191 5.54708,5.420601 3.59281,3.07311 5.67947,5.48818 7.02644,8.13228 0.48249,0.94713 1.31505,1.60744 3.07885,2.44186 1.32964,0.62903 2.68128,1.14548 3.00365,1.14766 1.04686,0.007 4.53704,2.25089 6.40175,4.11561 3.69365,3.69365 7.81568,10.71902 10.18485,17.35851 0.57248,1.60434 1.17955,3.09895 1.34906,3.32135 0.41262,0.54139 1.11698,3.46646 1.41466,5.874826 0.13282,1.07455 0.57016,2.92083 0.97189,4.10284 0.40172,1.18201 1.199,4.25915 1.77172,6.83808 0.57273,2.57893 1.46265,6.06255 1.97761,7.74138 0.51495,1.67883 0.93628,3.441 0.93628,3.91593 0,1.36968 2.63216,10.15254 3.82539,12.76438 0.44183,0.9671 1.44624,3.67276 2.23202,6.01257 0.82678,2.4619 2.20883,5.50742 3.28042,7.22882 1.01845,1.63604 2.21592,3.76589 2.66106,4.73298 1.33173,2.8933 2.84949,6.3381 2.84949,6.46737 0,0.0665 -0.39563,0.17717 -0.87918,0.24585 -0.77816,0.11051 -0.86489,0.31599 -0.75482,1.78823 0.0684,0.91485 0.73147,2.97738 1.47349,4.5834 1.63939,3.54825 1.98717,5.07787 1.33356,5.86542 -0.53721,0.6473 -1.33093,0.71067 -2.57947,0.20595 z" />
    <path
       d="m 72.80646,148.57456 c -0.45117,-0.18238 -1.19255,-0.9625 -1.6475,-1.7336 -0.98809,-1.67468 -2.61957,-1.91603 -3.82128,-0.5653 -1.95452,2.19691 -6.23622,2.87676 -10.2163,1.62215 -2.658,-0.83786 -3.30464,-1.57316 -8.0412,-9.14374 -2.86453,-4.57845 -4.35272,-6.53966 -6.23331,-8.21454 -1.56503,-1.39383 -2.93747,-3.07649 -3.74485,-4.59128 -1.36759,-2.56587 -2.00489,-2.89317 -2.96483,-1.52267 -0.71937,1.02705 -0.78328,2.61817 -0.16008,3.98594 0.34593,0.75922 0.33501,1.12006 -0.0478,1.58138 -0.40808,0.4917 -1.61357,0.59662 -6.79783,0.5917 -3.466,-0.003 -6.56247,-0.1708 -6.88107,-0.37225 -0.4851,-0.30674 -0.40233,-0.55094 0.50928,-1.50245 0.91712,-0.95726 1.49789,-1.1744 3.6882,-1.37893 2.57862,-0.2408 2.62119,-0.26411 5.25425,-2.877 2.87356,-2.85154 3.40178,-4.39772 1.95096,-5.71069 -1.01219,-0.91602 -11.27969,-5.34557 -12.3908,-5.34557 -0.65408,0 -1.28991,0.49888 -2.11658,1.66068 -1.70792,2.40032 -2.48591,3.24304 -3.48997,3.7804 -1.39171,0.74482 -3.96237,5.00267 -3.96237,6.56298 0,1.83541 0.62371,2.84433 1.75836,2.84433 0.93259,0 2.08302,1.36858 1.57635,1.87526 -0.32645,0.32645 -14.30664,0.54173 -15.05713,0.23187 -0.72097,-0.29768 1.62775,-1.25131 3.19171,-1.2959 1.70774,-0.0487 2.27024,-0.43306 3.11626,-2.12935 0.44233,-0.88686 1.82662,-2.6675 3.07621,-3.95696 2.51925,-2.59964 3.90123,-4.81094 3.90123,-6.24235 0,-1.52697 -2.67356,-6.45336 -4.97828,-9.17315 -1.17487,-1.38645 -3.60958,-4.75911 -5.41047,-7.49478 -1.8009,-2.735678 -3.45706,-5.086878 -3.68037,-5.224888 -0.72436,-0.44768 -2.58403,-4.60139 -3.67318,-8.20432 -0.5847,-1.9342 -1.57941,-4.92341 -2.21048,-6.6427 -1.325,-3.60984 -2.43039,-7.28807 -3.11186,-10.3548 -0.26266,-1.18201 -0.63314,-2.66364 -0.82329,-3.2925 -1.04469,-3.45495 -0.76787,-8.66293 0.62233,-11.70821 0.78793,-1.72599 1.67985,-5.85234 1.92138,-8.88898 0.17777,-2.23499 0.10077,-2.6895 -0.5564,-3.28423 -0.41949,-0.37964 -0.76272,-0.89974 -0.76272,-1.15578 0,-0.25604 -0.27121,-1.00919 -0.60269,-1.67366 -0.97465,-1.95372 -3.31413,-2.96123 -9.16635,-3.94752 -2.88389,-0.48603 -5.84347,-1.1344 -6.57683,-1.44082 -1.1441,-0.47804 -1.26168,-0.64351 -0.82828,-1.16572 1.17919,-1.42084 6.04169,-3.561491 9.74995,-4.292281 3.06186,-0.6034 4.89017,-1.48629 6.49298,-3.13546 0.91026,-0.93659 2.15155,-1.81634 2.75842,-1.95499 0.60687,-0.13866 2.59801,-0.7482 4.42476,-1.35454 4.31189,-1.43122 6.48419,-1.72396 8.62421,-1.16219 2.62291,0.68853 8.08422,4.47379 10.2315,7.09151 1.02202,1.24592 3.5182,3.685191 5.54708,5.420601 3.59281,3.07311 5.67947,5.48818 7.02644,8.13228 0.48249,0.94713 1.31505,1.60744 3.07885,2.44186 1.32964,0.62903 2.68128,1.14548 3.00365,1.14766 1.04686,0.007 4.53703,2.25089 6.40175,4.11561 3.69365,3.69365 7.81568,10.71902 10.18485,17.35851 0.57248,1.60434 1.17955,3.09895 1.34906,3.32135 0.41262,0.54139 1.11698,3.46646 1.41466,5.87483 0.13282,1.07455 0.57016,2.92083 0.97189,4.10284 0.40172,1.18201 1.199,4.25915 1.77172,6.83808 0.57273,2.57893 1.46265,6.06255 1.97761,7.74138 0.51495,1.67883 0.93628,3.441 0.93628,3.91593 0,1.369678 2.63216,10.152538 3.82539,12.764378 0.44183,0.9671 1.44624,3.67276 2.23202,6.01257 0.82678,2.4619 2.20883,5.50742 3.28042,7.22882 1.01845,1.63604 2.21592,3.76589 2.66106,4.73298 1.33173,2.8933 2.84949,6.3381 2.84949,6.46737 0,0.0665 -0.39563,0.17717 -0.87918,0.24585 -0.77816,0.11051 -0.86489,0.31599 -0.75482,1.78823 0.0684,0.91485 0.73147,2.97738 1.47349,4.5834 1.63939,3.54825 1.98717,5.07787 1.33356,5.86542 -0.53721,0.6473 -1.33093,0.71067 -2.57947,0.20595 z"
       id="path3048"
       style="fill:#000000"
       inkscape:connector-curvature="0" />
    <path
       inkscape:connector-curvature="0"
       style="fill:#000000"
       id="path3050"
       d="m 42.2899,278.55248 c -0.45117,-0.18238 -1.19255,-0.9625 -1.6475,-1.7336 -0.98809,-1.67468 -2.61957,-1.91603 -3.82128,-0.5653 -1.95452,2.19691 -6.23622,2.87676 -10.2163,1.62215 -2.658,-0.83786 -3.30464,-1.57316 -8.0412,-9.14374 -2.86453,-4.57845 -4.35272,-6.53966 -6.23331,-8.21454 -1.56503,-1.39383 -2.93747,-3.07649 -3.74485,-4.59128 -1.36759,-2.56587 -2.00489,-2.89317 -2.96483,-1.52267 -0.71937,1.02705 -0.78328,2.61817 -0.16008,3.98594 0.34593,0.75922 0.33501,1.12006 -0.0478,1.58138 -0.40808,0.4917 -1.61357,0.59662 -6.79783,0.5917 -3.466,-0.003 -6.56247,-0.1708 -6.88107,-0.37225 -0.4851,-0.30674 -0.40233,-0.55094 0.50928,-1.50245 0.91712,-0.95726 1.49789,-1.1744 3.6882,-1.37893 2.57862,-0.2408 2.62119,-0.26411 5.25425,-2.877 2.87356,-2.85154 3.40178,-4.39772 1.95096,-5.71069 -1.01219,-0.91602 -11.27969,-5.34557 -12.3908,-5.34557 -0.65408,0 -1.28991,0.49888 -2.11658,1.66068 -1.70792,2.40032 -2.48591,3.24304 -3.48997,3.7804 -1.39171,0.74482 -3.96237,5.00267 -3.96237,6.56298 0,1.83541 0.62371,2.84433 1.75836,2.84433 0.93259,0 2.08302,1.36858 1.57635,1.87526 -0.32645,0.32645 -14.30664,0.54173 -15.05713,0.23187 -0.72097,-0.29768 1.62775,-1.25131 3.19171,-1.2959 1.70774,-0.0487 2.27024,-0.43306 3.11626,-2.12935 0.44233,-0.88686 1.82662,-2.6675 3.07621,-3.95696 2.51925,-2.59964 3.90123,-4.81094 3.90123,-6.24235 0,-1.52697 -2.67356,-6.45336 -4.97828,-9.17315 -1.17487,-1.38645 -3.60958,-4.75911 -5.41047,-7.49478 -1.8009,-2.73568 -3.45706,-5.08688 -3.68037,-5.22489 -0.72436,-0.44768 -2.58403,-4.60139 -3.67318,-8.20432 -0.5847,-1.9342 -1.57941,-4.92341 -2.21048,-6.6427 -1.325,-3.60984 -2.43039,-7.28807 -3.11186,-10.3548 -0.26266,-1.18201 -0.63314,-2.66364 -0.82329,-3.2925 -1.04469,-3.45495 -0.76787,-8.66293 0.62233,-11.70821 0.78793,-1.72599 1.67985,-5.85234 1.92138,-8.88898 0.17777,-2.23499 0.10077,-2.6895 -0.5564,-3.28423 -0.41949,-0.37964 -0.76272,-0.89974 -0.76272,-1.15578 0,-0.25604 -0.27121,-1.00919 -0.60269,-1.67366 -0.97465,-1.95372 -3.31413,-2.96122 -9.16635,-3.94751 -2.88389,-0.48603 -5.84347,-1.1344 -6.57683,-1.44082 -1.1441,-0.47804 -1.26168,-0.64351 -0.82828,-1.16572 1.17919,-1.42084 6.04169,-3.56149 9.74995,-4.29228 3.06186,-0.6034 4.89017,-1.48629 6.49298,-3.13546 0.91026,-0.93659 2.15155,-1.81634 2.75842,-1.95499 0.60687,-0.13866 2.59801,-0.7482 4.42476,-1.35454 4.31189,-1.43122 6.48419,-1.72396 8.62421,-1.16219 2.62291,0.68853 8.08422,4.47379 10.2315,7.09151 1.02202,1.24592 3.5182,3.68519 5.54708,5.4206 3.59281,3.0731 5.67947,5.48817 7.02644,8.13227 0.48249,0.94713 1.31505,1.60744 3.07885,2.44186 1.32964,0.62903 2.68128,1.14548 3.00365,1.14766 1.04686,0.007 4.53703,2.25089 6.40175,4.11561 3.69365,3.69365 7.81568,10.71902 10.18485,17.35851 0.57248,1.60434 1.17955,3.09895 1.34906,3.32135 0.41262,0.54139 1.11698,3.46646 1.41466,5.87483 0.13282,1.07455 0.57016,2.92083 0.97189,4.10284 0.40172,1.18201 1.199,4.25915 1.77172,6.83808 0.57273,2.57893 1.46265,6.06255 1.97761,7.74138 0.51495,1.67883 0.93628,3.441 0.93628,3.91593 0,1.36968 2.63216,10.15254 3.82539,12.76438 0.44183,0.9671 1.44624,3.67276 2.23202,6.01257 0.82678,2.4619 2.20883,5.50742 3.28042,7.22882 1.01845,1.63604 2.21592,3.76589 2.66106,4.73298 1.33173,2.8933 2.84949,6.3381 2.84949,6.46737 0,0.0665 -0.39563,0.17717 -0.87918,0.24585 -0.77816,0.11051 -0.86489,0.31599 -0.75482,1.78823 0.0684,0.91485 0.73147,2.97738 1.47349,4.5834 1.63939,3.54825 1.98717,5.07787 1.33356,5.86542 -0.53721,0.6473 -1.33093,0.71067 -2.57947,0.20595 z" />
    <path
       d="m -101.81606,287.0293 c -0.45117,-0.18238 -1.19255,-0.9625 -1.6475,-1.7336 -0.98809,-1.67468 -2.61957,-1.91603 -3.82128,-0.5653 -1.95452,2.19691 -6.23622,2.87676 -10.2163,1.62215 -2.658,-0.83786 -3.30464,-1.57316 -8.0412,-9.14374 -2.86453,-4.57845 -4.35272,-6.53966 -6.23331,-8.21454 -1.56503,-1.39383 -2.93747,-3.07649 -3.74485,-4.59128 -1.36759,-2.56587 -2.00489,-2.89317 -2.96483,-1.52267 -0.71937,1.02705 -0.78328,2.61817 -0.16008,3.98594 0.34593,0.75922 0.33501,1.12006 -0.0478,1.58138 -0.40808,0.4917 -1.61357,0.59662 -6.79783,0.5917 -3.466,-0.003 -6.56247,-0.1708 -6.88107,-0.37225 -0.4851,-0.30674 -0.40233,-0.55094 0.50928,-1.50245 0.91712,-0.95726 1.49789,-1.1744 3.6882,-1.37893 2.57862,-0.2408 2.62119,-0.26411 5.25425,-2.877 2.87356,-2.85154 3.40178,-4.39772 1.95096,-5.71069 -1.01219,-0.91602 -11.27969,-5.34557 -12.3908,-5.34557 -0.65408,0 -1.28991,0.49888 -2.11658,1.66068 -1.70792,2.40032 -2.48591,3.24304 -3.48997,3.7804 -1.39171,0.74482 -3.96237,5.00267 -3.96237,6.56298 0,1.83541 0.62371,2.84433 1.75836,2.84433 0.93259,0 2.08302,1.36858 1.57635,1.87526 -0.32645,0.32645 -14.30664,0.54173 -15.05713,0.23187 -0.72097,-0.29768 1.62775,-1.25131 3.19171,-1.2959 1.70774,-0.0487 2.27024,-0.43306 3.11626,-2.12935 0.44233,-0.88686 1.82662,-2.6675 3.07621,-3.95696 2.51925,-2.59964 3.90123,-4.81094 3.90123,-6.24235 0,-1.52697 -2.67356,-6.45336 -4.97828,-9.17315 -1.17487,-1.38645 -3.60958,-4.75911 -5.41047,-7.49478 -1.8009,-2.73568 -3.45706,-5.08688 -3.68037,-5.22489 -0.72436,-0.44768 -2.58403,-4.60139 -3.67318,-8.20432 -0.5847,-1.9342 -1.57941,-4.92341 -2.21048,-6.6427 -1.325,-3.60984 -2.43039,-7.28807 -3.11186,-10.3548 -0.26266,-1.18201 -0.63314,-2.66364 -0.82329,-3.2925 -1.04469,-3.45495 -0.76787,-8.66293 0.62233,-11.70821 0.78793,-1.72599 1.67985,-5.85234 1.92138,-8.88898 0.17777,-2.23499 0.10077,-2.6895 -0.5564,-3.28423 -0.41949,-0.37964 -0.76272,-0.89974 -0.76272,-1.15578 0,-0.25604 -0.27121,-1.00919 -0.60269,-1.67366 -0.97465,-1.95372 -3.31413,-2.96122 -9.16635,-3.94751 -2.88389,-0.48603 -5.84347,-1.1344 -6.57683,-1.44082 -1.1441,-0.47804 -1.26168,-0.64351 -0.82828,-1.16572 1.17919,-1.42084 6.04169,-3.5615 9.74995,-4.29229 3.06186,-0.60339 4.89017,-1.48628 6.49298,-3.13545 0.91026,-0.93659 2.15155,-1.81634 2.75842,-1.95499 0.60687,-0.13866 2.59801,-0.7482 4.42476,-1.35454 4.31189,-1.43122 6.48419,-1.72396 8.62421,-1.16219 2.62291,0.68853 8.08422,4.47379 10.2315,7.0915 1.02202,1.24592 3.5182,3.6852 5.54708,5.42061 3.59281,3.0731 5.67947,5.48817 7.02644,8.13227 0.48249,0.94713 1.31505,1.60744 3.07885,2.44186 1.32964,0.62903 2.68128,1.14548 3.00365,1.14766 1.04686,0.007 4.53703,2.25089 6.40175,4.11561 3.69365,3.69365 7.81568,10.71902 10.18485,17.35851 0.57248,1.60434 1.17955,3.09895 1.34906,3.32135 0.41262,0.54139 1.11698,3.46646 1.41466,5.87483 0.13282,1.07455 0.57016,2.92083 0.97189,4.10284 0.40172,1.18201 1.199,4.25915 1.77172,6.83808 0.57273,2.57893 1.46265,6.06255 1.97761,7.74138 0.51495,1.67883 0.93628,3.441 0.93628,3.91593 0,1.36968 2.63216,10.15254 3.82539,12.76438 0.44183,0.9671 1.44624,3.67276 2.23202,6.01257 0.82678,2.4619 2.20883,5.50742 3.28042,7.22882 1.01845,1.63604 2.21592,3.76589 2.66106,4.73298 1.33173,2.8933 2.84949,6.3381 2.84949,6.46737 0,0.0665 -0.39563,0.17717 -0.87918,0.24585 -0.77816,0.11051 -0.86489,0.31599 -0.75482,1.78823 0.0684,0.91485 0.73147,2.97738 1.47349,4.5834 1.63939,3.54825 1.98717,5.07787 1.33356,5.86542 -0.53721,0.6473 -1.33093,0.71067 -2.57947,0.20595 z"
       id="path3052"
       style="fill:#000000"
       inkscape:connector-curvature="0" />
    <path
       inkscape:connector-curvature="0"
       style="fill:#000000"
       id="path3056"
       d="m -113.6836,-5.70359 c -0.45117,-0.18238 -1.19255,-0.9625 -1.6475,-1.7336 -0.98809,-1.67468 -2.61957,-1.91603 -3.82128,-0.5653 -1.95452,2.19691 -6.23622,2.87676 -10.21631,1.62215 -2.658,-0.83786 -3.30463,-1.57316 -8.0412,-9.14374 -2.86452,-4.57845 -4.35272,-6.53966 -6.23331,-8.21454 -1.56502,-1.39383 -2.93747,-3.07649 -3.74484,-4.59128 -1.36759,-2.56587 -2.0049,-2.89317 -2.96483,-1.52267 -0.71938,1.02705 -0.78328,2.61817 -0.16008,3.98594 0.34593,0.75922 0.33501,1.12006 -0.0478,1.58138 -0.40808,0.4917 -1.61357,0.59662 -6.79784,0.5917 -3.46599,-0.003 -6.56247,-0.1708 -6.88106,-0.37225 -0.48511,-0.30674 -0.40233,-0.55094 0.50927,-1.50245 0.91712,-0.95726 1.49789,-1.1744 3.6882,-1.37893 2.57862,-0.2408 2.62119,-0.26411 5.25426,-2.877 2.87356,-2.85154 3.40178,-4.397717 1.95096,-5.710687 -1.01219,-0.91602 -11.2797,-5.34557 -12.3908,-5.34557 -0.65408,0 -1.28992,0.49888 -2.11658,1.66068 -1.70793,2.40032 -2.48591,3.24304 -3.48998,3.7804 -1.3917,0.74482 -3.96237,5.002667 -3.96237,6.562977 0,1.83541 0.62372,2.84433 1.75837,2.84433 0.93259,0 2.08302,1.36858 1.57634,1.87526 -0.32644,0.32645 -14.30663,0.54173 -15.05712,0.23187 -0.72097,-0.29768 1.62775,-1.25131 3.1917,-1.2959 1.70774,-0.0487 2.27025,-0.43306 3.11627,-2.12935 0.44232,-0.88686 1.82661,-2.6675 3.07621,-3.95696 2.51924,-2.599637 3.90122,-4.810937 3.90122,-6.242347 0,-1.52697 -2.67355,-6.45336 -4.97827,-9.17315 -1.17487,-1.38645 -3.60958,-4.75911 -5.41048,-7.49478 -1.80089,-2.73568 -3.45705,-5.08688 -3.68036,-5.22489 -0.72436,-0.44768 -2.58403,-4.60139 -3.67318,-8.20432 -0.5847,-1.9342 -1.57942,-4.92341 -2.21048,-6.6427 -1.325,-3.60984 -2.4304,-7.28807 -3.11186,-10.3548 -0.26266,-1.18201 -0.63314,-2.66364 -0.8233,-3.2925 -1.04469,-3.45495 -0.76787,-8.66293 0.62233,-11.70821 0.78793,-1.725993 1.67986,-5.852343 1.92139,-8.888983 0.17777,-2.23499 0.10077,-2.6895 -0.5564,-3.28423 -0.4195,-0.37964 -0.76272,-0.89974 -0.76272,-1.15578 0,-0.25604 -0.27122,-1.00919 -0.6027,-1.67366 -0.97464,-1.95372 -3.31413,-2.96123 -9.16634,-3.94752 -2.8839,-0.48603 -5.84347,-1.1344 -6.57683,-1.44082 -1.14411,-0.47804 -1.26168,-0.64351 -0.82829,-1.16572 1.1792,-1.42084 6.0417,-3.56149 9.74996,-4.29228 3.06186,-0.6034 4.89016,-1.48629 6.49297,-3.13546 0.91026,-0.93659 2.15156,-1.81634 2.75843,-1.95499 0.60687,-0.13866 2.59801,-0.7482 4.42475,-1.35454 4.3119,-1.43122 6.4842,-1.72396 8.62422,-1.16219 2.62291,0.68853 8.08422,4.47379 10.2315,7.09151 1.02201,1.24592 3.5182,3.68519 5.54708,5.4206 3.5928,3.07311 5.67946,5.48818 7.02643,8.13228 0.48249,0.94713 1.31505,1.60744 3.07885,2.44186 1.32965,0.62903 2.68129,1.14548 3.00365,1.14766 1.04686,0.007 4.53704,2.25089 6.40176,4.11561 3.69364,3.69365 7.81567,10.719023 10.18485,17.358513 0.57247,1.60434 1.17955,3.09895 1.34906,3.32135 0.41262,0.54139 1.11697,3.46646 1.41465,5.87483 0.13282,1.07455 0.57017,2.92083 0.97189,4.10284 0.40173,1.18201 1.199,4.25915 1.77173,6.83808 0.57273,2.57893 1.46265,6.06255 1.9776,7.74138 0.51496,1.67883 0.93628,3.441 0.93628,3.91593 0,1.36968 2.63217,10.15254 3.8254,12.76438 0.44183,0.9671 1.44624,3.67276 2.23202,6.01257 0.82678,2.4619 2.20883,5.507417 3.28042,7.228817 1.01845,1.63604 2.21592,3.76589 2.66106,4.73298 1.33173,2.8933 2.84949,6.3381 2.84949,6.46737 0,0.0665 -0.39563,0.17717 -0.87918,0.24585 -0.77816,0.11051 -0.86489,0.31599 -0.75482,1.78823 0.0684,0.91485 0.73147,2.97738 1.47349,4.5834 1.63939,3.54825 1.98717,5.07787 1.33356,5.86542 -0.53721,0.6473 -1.33093,0.71067 -2.57947,0.20595 z" />
    <path
       d="m -240.2708,-26.61308 c -0.45117,-0.18238 -1.19255,-0.9625 -1.6475,-1.7336 -0.98809,-1.67468 -2.61957,-1.91603 -3.82128,-0.5653 -1.95452,2.19691 -6.23622,2.87676 -10.2163,1.62215 -2.658,-0.83786 -3.30464,-1.57316 -8.0412,-9.143742 -2.86453,-4.57845 -4.35272,-6.53966 -6.23331,-8.21454 -1.56502,-1.39383 -2.93747,-3.07649 -3.74485,-4.59128 -1.36759,-2.56587 -2.00489,-2.89317 -2.96483,-1.52267 -0.71937,1.02705 -0.78328,2.61817 -0.16008,3.98594 0.34593,0.75922 0.33501,1.12006 -0.0478,1.58138 -0.40807,0.4917 -1.61357,0.59662 -6.79783,0.5917 -3.466,-0.003 -6.56247,-0.1708 -6.88106,-0.37225 -0.48511,-0.30674 -0.40234,-0.55094 0.50927,-1.50245 0.91712,-0.95726 1.49789,-1.1744 3.6882,-1.37893 2.57862,-0.2408 2.62119,-0.26411 5.25425,-2.877 2.87356,-2.85154 3.40178,-4.397717 1.95096,-5.710687 -1.01219,-0.91602 -11.27969,-5.34557 -12.3908,-5.34557 -0.65408,0 -1.28991,0.49888 -2.11658,1.66068 -1.70792,2.40032 -2.48591,3.24304 -3.48997,3.7804 -1.39171,0.74482 -3.96237,5.002667 -3.96237,6.562977 0,1.83541 0.62371,2.84433 1.75836,2.84433 0.93259,0 2.08302,1.36858 1.57635,1.87526 -0.32645,0.32645 -14.30664,0.54173 -15.05713,0.23187 -0.72097,-0.29768 1.62776,-1.25131 3.19171,-1.2959 1.70774,-0.0487 2.27024,-0.43306 3.11626,-2.12935 0.44233,-0.88686 1.82662,-2.6675 3.07621,-3.95696 2.51925,-2.599637 3.90123,-4.810937 3.90123,-6.242347 0,-1.52697 -2.67356,-6.45336 -4.97828,-9.17315 -1.17487,-1.38645 -3.60958,-4.75911 -5.41047,-7.49478 -1.8009,-2.73568 -3.45706,-5.08688 -3.68037,-5.22489 -0.72436,-0.44768 -2.58403,-4.60139 -3.67318,-8.20432 -0.5847,-1.9342 -1.57941,-4.92341 -2.21048,-6.6427 -1.325,-3.60984 -2.43039,-7.288071 -3.11186,-10.354801 -0.26266,-1.18201 -0.63314,-2.66364 -0.82329,-3.2925 -1.04469,-3.45495 -0.76787,-8.66293 0.62233,-11.70821 0.78793,-1.72599 1.67985,-5.85234 1.92138,-8.88898 0.17777,-2.23499 0.10077,-2.6895 -0.5564,-3.28423 -0.41949,-0.37964 -0.76272,-0.89974 -0.76272,-1.15578 0,-0.25604 -0.27121,-1.00919 -0.60269,-1.67366 -0.97465,-1.95372 -3.31413,-2.96123 -9.16635,-3.94752 -2.88389,-0.48603 -5.84347,-1.1344 -6.57683,-1.44082 -1.1441,-0.47804 -1.26168,-0.64351 -0.82828,-1.16572 1.17919,-1.42084 6.04169,-3.56149 9.74995,-4.29228 3.06186,-0.6034 4.89017,-1.48629 6.49298,-3.13546 0.91026,-0.93659 2.15155,-1.81634 2.75842,-1.95499 0.60687,-0.13866 2.59801,-0.7482 4.42476,-1.35454 4.31189,-1.43122 6.48419,-1.72396 8.62421,-1.16219 2.62291,0.68853 8.08422,4.47379 10.2315,7.09151 1.02202,1.24592 3.5182,3.68519 5.54708,5.4206 3.59281,3.07311 5.67947,5.48818 7.02644,8.13228 0.48249,0.94713 1.31505,1.60744 3.07885,2.44186 1.32964,0.62903 2.68128,1.14548 3.00365,1.14766 1.04686,0.007 4.53703,2.25089 6.40175,4.11561 3.69365,3.69365 7.81568,10.71902 10.18485,17.35851 0.57248,1.60434 1.17955,3.09895 1.34906,3.32135 0.41262,0.54139 1.11698,3.46646 1.41466,5.874831 0.13282,1.07455 0.57016,2.92083 0.97189,4.10284 0.40172,1.18201 1.199,4.25915 1.77172,6.83808 0.57273,2.57893 1.46265,6.06255 1.97761,7.74138 0.51495,1.67883 0.93628,3.441 0.93628,3.91593 0,1.36968 2.63216,10.15254 3.82539,12.76438 0.44183,0.9671 1.44624,3.67276 2.23202,6.01257 0.82678,2.4619 2.20883,5.507417 3.28042,7.228817 1.01845,1.63604 2.21592,3.76589 2.66106,4.73298 1.33173,2.8933 2.84949,6.3381 2.84949,6.46737 0,0.0665 -0.39563,0.17717 -0.87918,0.24585 -0.77816,0.11051 -0.86489,0.31599 -0.75482,1.78823 0.0684,0.91485 0.73147,2.97738 1.47349,4.583402 1.63939,3.54825 1.98717,5.07787 1.33356,5.86542 -0.53721,0.6473 -1.33093,0.71067 -2.57947,0.20595 z"
       id="path3058"
       style="fill:#000000"
       inkscape:connector-curvature="0" />
    <path
       inkscape:connector-curvature="0"
       style="fill:#000000"
       id="path3060"
       d="m 19.68505,-51.478422 c -0.45117,-0.18238 -1.19255,-0.9625 -1.6475,-1.7336 -0.98809,-1.67468 -2.61957,-1.91603 -3.82128,-0.5653 -1.95452,2.19691 -6.23622,2.87676 -10.2163,1.62215 -2.658,-0.83786 -3.30464,-1.57316 -8.0412,-9.143742 -2.86453,-4.57845 -4.35272,-6.53966 -6.23331,-8.21454 -1.56503,-1.39383 -2.93747,-3.07649 -3.74485,-4.59128 -1.36759,-2.56587 -2.00489,-2.89317 -2.96483,-1.52267 -0.71937,1.02705 -0.78328,2.61817 -0.16008,3.98594 0.34593,0.75922 0.33501,1.12006 -0.0478,1.58138 -0.40808,0.4917 -1.61357,0.59662 -6.79783,0.5917 -3.466,-0.003 -6.56247,-0.1708 -6.88107,-0.37225 -0.4851,-0.30674 -0.40233,-0.55094 0.50928,-1.50245 0.91712,-0.95726 1.49789,-1.1744 3.6882,-1.37893 2.57862,-0.2408 2.62119,-0.26411 5.25425,-2.877 2.87356,-2.85154 3.40178,-4.397717 1.95096,-5.710687 -1.01219,-0.91602 -11.27969,-5.34557 -12.3908,-5.34557 -0.65408,0 -1.28991,0.49888 -2.11658,1.66068 -1.70792,2.40032 -2.48591,3.24304 -3.48997,3.7804 -1.39171,0.74482 -3.96237,5.002667 -3.96237,6.562977 0,1.83541 0.62371,2.84433 1.75836,2.84433 0.93259,0 2.08302,1.36858 1.57635,1.87526 -0.32645,0.32645 -14.30664,0.54173 -15.05713,0.23187 -0.72097,-0.29768 1.62775,-1.25131 3.19171,-1.2959 1.70774,-0.0487 2.27024,-0.43306 3.11626,-2.12935 0.44233,-0.88686 1.82662,-2.6675 3.07621,-3.95696 2.51925,-2.599637 3.90123,-4.810937 3.90123,-6.242347 0,-1.52697 -2.67356,-6.45336 -4.97828,-9.17315 -1.17487,-1.38645 -3.60958,-4.75911 -5.41047,-7.49478 -1.8009,-2.735679 -3.45706,-5.086879 -3.68037,-5.224889 -0.72436,-0.44768 -2.58403,-4.60139 -3.67318,-8.20432 -0.5847,-1.9342 -1.57941,-4.92341 -2.21048,-6.6427 -1.325,-3.60984 -2.43039,-7.28807 -3.11186,-10.3548 -0.26266,-1.18201 -0.63314,-2.66364 -0.82329,-3.2925 -1.04469,-3.45495 -0.76787,-8.66293 0.62233,-11.70821 0.78793,-1.72599 1.67985,-5.85234 1.92138,-8.88898 0.17777,-2.23499 0.10077,-2.6895 -0.5564,-3.28423 -0.41949,-0.37964 -0.76272,-0.89974 -0.76272,-1.15578 0,-0.25604 -0.27121,-1.00919 -0.60269,-1.67366 -0.97465,-1.95372 -3.31413,-2.96123 -9.16635,-3.94752 -2.88389,-0.48603 -5.84347,-1.1344 -6.57683,-1.44082 -1.1441,-0.47804 -1.26168,-0.64351 -0.82828,-1.16572 1.17919,-1.42084 6.04169,-3.56149 9.74995,-4.29228 3.06186,-0.6034 4.89017,-1.48629 6.49298,-3.13546 0.91026,-0.93659 2.15155,-1.81634 2.75842,-1.95499 0.60687,-0.13866 2.59801,-0.7482 4.42476,-1.35454 4.31189,-1.43122 6.48419,-1.72396 8.62421,-1.16219 2.62291,0.68853 8.08422,4.47379 10.2315,7.09151 1.02202,1.24592 3.5182,3.68519 5.54708,5.4206 3.59281,3.07311 5.67947,5.48818 7.02644,8.13228 0.48249,0.94713 1.31505,1.60744 3.07885,2.44186 1.32964,0.62903 2.68128,1.14548 3.00365,1.14766 1.04686,0.007 4.53703,2.25089 6.40175,4.11561 3.69365,3.69365 7.81568,10.71902 10.18485,17.35851 0.57248,1.60434 1.17955,3.09895 1.34906,3.32135 0.41262,0.54139 1.11698,3.46646 1.41466,5.87483 0.13282,1.07455 0.57016,2.92083 0.97189,4.10284 0.40172,1.18201 1.199,4.25915 1.77172,6.83808 0.57273,2.57893 1.46265,6.06255 1.97761,7.74138 0.51495,1.67883 0.93628,3.441 0.93628,3.91593 0,1.36968 2.63216,10.152539 3.82539,12.764379 0.44183,0.9671 1.44624,3.67276 2.23202,6.01257 0.82678,2.4619 2.20883,5.507417 3.28042,7.228817 1.01845,1.63604 2.21592,3.76589 2.66106,4.73298 1.33173,2.8933 2.84949,6.3381 2.84949,6.46737 0,0.0665 -0.39563,0.17717 -0.87918,0.24585 -0.77816,0.11051 -0.86489,0.31599 -0.75482,1.78823 0.0684,0.91485 0.73147,2.97738 1.47349,4.583402 1.63939,3.54825 1.98717,5.07787 1.33356,5.86542 -0.53721,0.6473 -1.33093,0.71067 -2.57947,0.20595 z" />
    <path
       d="m -10.83151,78.4995 c -0.45117,-0.18238 -1.19255,-0.9625 -1.6475,-1.7336 -0.98809,-1.67468 -2.61957,-1.91603 -3.82128,-0.5653 -1.95452,2.19691 -6.23622,2.87676 -10.2163,1.62215 -2.658,-0.83786 -3.30464,-1.57316 -8.0412,-9.14374 -2.86453,-4.57845 -4.35272,-6.53966 -6.23331,-8.21454 -1.56503,-1.39383 -2.93747,-3.07649 -3.74485,-4.59128 -1.36759,-2.56587 -2.00489,-2.89317 -2.96483,-1.52267 -0.71937,1.02705 -0.78328,2.61817 -0.16008,3.98594 0.34593,0.75922 0.33501,1.12006 -0.0478,1.58138 -0.40808,0.4917 -1.61357,0.59662 -6.79783,0.5917 -3.466,-0.003 -6.56247,-0.1708 -6.88107,-0.37225 -0.4851,-0.30674 -0.40233,-0.55094 0.50928,-1.50245 0.91712,-0.95726 1.49789,-1.1744 3.6882,-1.37893 2.57862,-0.2408 2.62119,-0.26411 5.25425,-2.877 2.87356,-2.85154 3.40178,-4.39772 1.95096,-5.71069 -1.01219,-0.91602 -11.27969,-5.34557 -12.3908,-5.34557 -0.65408,0 -1.28991,0.49888 -2.11658,1.66068 -1.70792,2.40032 -2.48591,3.24304 -3.48997,3.7804 -1.39171,0.74482 -3.96237,5.00267 -3.96237,6.56298 0,1.83541 0.62371,2.84433 1.75836,2.84433 0.93259,0 2.08302,1.36858 1.57635,1.87526 -0.32645,0.32645 -14.30664,0.54173 -15.05713,0.23187 -0.72097,-0.29768 1.62775,-1.25131 3.19171,-1.2959 1.70774,-0.0487 2.27024,-0.43306 3.11626,-2.12935 0.44233,-0.88686 1.82662,-2.6675 3.07621,-3.95696 2.51925,-2.59964 3.90123,-4.81094 3.90123,-6.24235 0,-1.52697 -2.67356,-6.45336 -4.97828,-9.17315 -1.17487,-1.38645 -3.60958,-4.75911 -5.41047,-7.49478 -1.8009,-2.73568 -3.45706,-5.08688 -3.68037,-5.22489 -0.72436,-0.44768 -2.58403,-4.60139 -3.67318,-8.20432 -0.5847,-1.9342 -1.57941,-4.92341 -2.21048,-6.6427 -1.325,-3.60984 -2.43039,-7.28807 -3.11186,-10.3548 -0.26266,-1.18201 -0.63314,-2.66364 -0.82329,-3.2925 -1.04469,-3.45495 -0.76787,-8.66293 0.62233,-11.70821 0.78793,-1.72599 1.67985,-5.85234 1.92138,-8.88898 0.17777,-2.23499 0.10077,-2.6895 -0.5564,-3.28423 -0.41949,-0.37964 -0.76272,-0.89974 -0.76272,-1.15578 0,-0.25604 -0.27121,-1.00919 -0.60269,-1.67366 -0.97465,-1.95372 -3.31413,-2.961226 -9.16635,-3.947516 -2.88389,-0.48603 -5.84347,-1.1344 -6.57683,-1.44082 -1.1441,-0.47804 -1.26168,-0.64351 -0.82828,-1.16572 1.17919,-1.42084 6.04169,-3.561491 9.74995,-4.292281 3.06186,-0.6034 4.89017,-1.48629 6.49298,-3.13546 0.91026,-0.93659 2.15155,-1.81634 2.75842,-1.95499 0.60687,-0.13866 2.59801,-0.7482 4.42476,-1.35454 4.31189,-1.43122 6.48419,-1.72396 8.62421,-1.16219 2.62291,0.68853 8.08422,4.47379 10.2315,7.09151 1.02202,1.24592 3.5182,3.685191 5.54708,5.420601 3.59281,3.073106 5.67947,5.488176 7.02644,8.132276 0.48249,0.94713 1.31505,1.60744 3.07885,2.44186 1.32964,0.62903 2.68128,1.14548 3.00365,1.14766 1.04686,0.007 4.53703,2.25089 6.40175,4.11561 3.69365,3.69365 7.81568,10.71902 10.18485,17.35851 0.57248,1.60434 1.17955,3.09895 1.34906,3.32135 0.41262,0.54139 1.11698,3.46646 1.41466,5.87483 0.13282,1.07455 0.57016,2.92083 0.97189,4.10284 0.40172,1.18201 1.199,4.25915 1.77172,6.83808 0.57273,2.57893 1.46265,6.06255 1.97761,7.74138 0.51495,1.67883 0.93628,3.441 0.93628,3.91593 0,1.36968 2.63216,10.15254 3.82539,12.76438 0.44183,0.9671 1.44624,3.67276 2.23202,6.01257 0.82678,2.4619 2.20883,5.50742 3.28042,7.22882 1.01845,1.63604 2.21592,3.76589 2.66106,4.73298 1.33173,2.8933 2.84949,6.3381 2.84949,6.46737 0,0.0665 -0.39563,0.17717 -0.87918,0.24585 -0.77816,0.11051 -0.86489,0.31599 -0.75482,1.78823 0.0684,0.91485 0.73147,2.97738 1.47349,4.5834 1.63939,3.54825 1.98717,5.07787 1.33356,5.86542 -0.53721,0.6473 -1.33093,0.71067 -2.57947,0.20595 z"
       id="path3062"
       style="fill:#000000"
       inkscape:connector-curvature="0" />
    <path
       inkscape:connector-curvature="0"
       style="fill:#000000"
       id="path3064"
       d="m -154.93747,86.97632 c -0.45117,-0.18238 -1.19255,-0.9625 -1.6475,-1.7336 -0.98809,-1.67468 -2.61957,-1.91603 -3.82128,-0.5653 -1.95452,2.19691 -6.23622,2.87676 -10.2163,1.62215 -2.658,-0.83786 -3.30464,-1.57316 -8.0412,-9.14374 -2.86453,-4.57845 -4.35272,-6.53966 -6.23331,-8.21454 -1.56503,-1.39383 -2.93747,-3.07649 -3.74485,-4.59128 -1.36759,-2.56587 -2.00489,-2.89317 -2.96483,-1.52267 -0.71937,1.02705 -0.78328,2.61817 -0.16008,3.98594 0.34593,0.75922 0.33501,1.12006 -0.0478,1.58138 -0.40808,0.4917 -1.61357,0.59662 -6.79783,0.5917 -3.466,-0.003 -6.56247,-0.1708 -6.88107,-0.37225 -0.4851,-0.30674 -0.40233,-0.55094 0.50928,-1.50245 0.91712,-0.95726 1.49789,-1.1744 3.6882,-1.37893 2.57862,-0.2408 2.62119,-0.26411 5.25425,-2.877 2.87356,-2.85154 3.40178,-4.39772 1.95096,-5.71069 -1.01219,-0.91602 -11.27969,-5.34557 -12.3908,-5.34557 -0.65408,0 -1.28991,0.49888 -2.11658,1.66068 -1.70792,2.40032 -2.48591,3.24304 -3.48997,3.7804 -1.39171,0.74482 -3.96237,5.00267 -3.96237,6.56298 0,1.83541 0.62371,2.84433 1.75836,2.84433 0.93259,0 2.08302,1.36858 1.57635,1.87526 -0.32645,0.32645 -14.30664,0.54173 -15.05713,0.23187 -0.72097,-0.29768 1.62775,-1.25131 3.19171,-1.2959 1.70774,-0.0487 2.27024,-0.43306 3.11626,-2.12935 0.44233,-0.88686 1.82662,-2.6675 3.07621,-3.95696 2.51925,-2.59964 3.90123,-4.81094 3.90123,-6.24235 0,-1.52697 -2.67356,-6.45336 -4.97828,-9.17315 -1.17487,-1.38645 -3.60958,-4.75911 -5.41047,-7.49478 -1.8009,-2.73568 -3.45706,-5.08688 -3.68037,-5.22489 -0.72436,-0.44768 -2.58403,-4.60139 -3.67318,-8.20432 -0.5847,-1.9342 -1.57941,-4.92341 -2.21048,-6.6427 -1.325,-3.60984 -2.43039,-7.28807 -3.11186,-10.3548 -0.26266,-1.18201 -0.63314,-2.66364 -0.82329,-3.2925 -1.04469,-3.45495 -0.76787,-8.66293 0.62233,-11.70821 0.78793,-1.72599 1.67985,-5.85234 1.92138,-8.88898 0.17777,-2.23499 0.10077,-2.6895 -0.5564,-3.28423 -0.41949,-0.37964 -0.76272,-0.89974 -0.76272,-1.15578 0,-0.25604 -0.27121,-1.00919 -0.60269,-1.67366 -0.97465,-1.95372 -3.31413,-2.96122 -9.16635,-3.94751 -2.88389,-0.48603 -5.84347,-1.1344 -6.57683,-1.44082 -1.1441,-0.47804 -1.26168,-0.64351 -0.82828,-1.16572 1.17919,-1.42084 6.04169,-3.5615 9.74995,-4.29229 3.06186,-0.603396 4.89017,-1.486286 6.49298,-3.135456 0.91026,-0.93659 2.15155,-1.81634 2.75842,-1.95499 0.60687,-0.13866 2.59801,-0.7482 4.42476,-1.35454 4.31189,-1.43122 6.48419,-1.72396 8.62421,-1.16219 2.62291,0.68853 8.08422,4.47379 10.2315,7.091506 1.02202,1.24592 3.5182,3.6852 5.54708,5.42061 3.59281,3.0731 5.67947,5.48817 7.02644,8.13227 0.48249,0.94713 1.31505,1.60744 3.07885,2.44186 1.32964,0.62903 2.68128,1.14548 3.00365,1.14766 1.04686,0.007 4.53703,2.25089 6.40175,4.11561 3.69365,3.69365 7.81568,10.71902 10.18485,17.35851 0.57248,1.60434 1.17955,3.09895 1.34906,3.32135 0.41262,0.54139 1.11698,3.46646 1.41466,5.87483 0.13282,1.07455 0.57016,2.92083 0.97189,4.10284 0.40172,1.18201 1.199,4.25915 1.77172,6.83808 0.57273,2.57893 1.46265,6.06255 1.97761,7.74138 0.51495,1.67883 0.93628,3.441 0.93628,3.91593 0,1.36968 2.63216,10.15254 3.82539,12.76438 0.44183,0.9671 1.44624,3.67276 2.23202,6.01257 0.82678,2.4619 2.20883,5.50742 3.28042,7.22882 1.01845,1.63604 2.21592,3.76589 2.66106,4.73298 1.33173,2.8933 2.84949,6.3381 2.84949,6.46737 0,0.0665 -0.39563,0.17717 -0.87918,0.24585 -0.77816,0.11051 -0.86489,0.31599 -0.75482,1.78823 0.0684,0.91485 0.73147,2.97738 1.47349,4.5834 1.63939,3.54825 1.98717,5.07787 1.33356,5.86542 -0.53721,0.6473 -1.33093,0.71067 -2.57947,0.20595 z" />
  </g>
</svg>
